<svg version="1.2" baseProfile="tiny-ps" viewBox="0 0 300 300" xmlns="http://www.w3.org/2000/svg" xmlns:xlink="http://www.w3.org/1999/xlink"><title>ANGELVS COURSES</title><g><g fill="#edeeed" transform="matrix(.1 0 0 -.1 0 300)"><path d="M0 1500V0h3000v3000H0V1500z"/></g><g fill="#c0c2c1" transform="matrix(.1 0 0 -.1 0 300)"><path d="M0 1500V0h3000v3000H0V1500zm2100 996c0-8-5-18-11-22l-11-6-10 10-10 10 6 11c4 6 14 11 22 11h14v-14zm106-35 32-19-15-47c-9-25-18-43-21-41-8 9-42-14-42-29 0-8 7-18 16-23l17-9-8-13-8-13-9 22-8 22-17-3-18-3-3-23-3-22 15-6 16-6-6-10-6-9-12 16-12 17-20-4-19-3v-50l24 1 24 1-18-13c-10-7-22-11-27-8l-8 5-162-153c-89-84-228-216-308-293s-163-156-186-175c-55-48 142 146 365 360 172 164 257 257 247 268-3 2-111-96-242-219-130-123-286-271-348-328l-111-104 145 144c269 265 585 570 601 580 9 4 25 21 35 36l18 28-53-45c-28-25-67-54-85-65-30-18-165-145-566-530l-125-120 105 108c58 60 203 201 323 315l219 207 14 28 15 27h-11c-12 0-55-40-452-422-124-120-230-218-235-217-8 0 94 100 439 427 111 107 215 212 230 234 15 21 44 52 65 68 21 15 60 51 88 79l49 51h16c8 0 29-9 46-19zm-168-28-3-18-18-3-17-3v41h41l-3-17zm-404-33 77-19 70-37 71-37-15-8-14-8-80 33c-44 19-106 40-139 46l-59 13-75-1h-75l-64-17c-80-20-170-65-238-117l-52-39-41-56c-50-65-102-176-120-252l-13-54 7-111c3-61 9-133 12-161l6-50-11 15c-6 8-18 40-28 70l-17 55-1 115v115l14 50c8 28 30 84 50 125l36 75 80 81 80 80 72 37 72 38 73 19 73 19h86l86 1 77-20zm346-20c0-14-20-22-37-16l-15 6 12 15 11 14 15-6c8-3 14-9 14-13zm-383-50c26-6 55-15 63-20l14-9-7-7-7-7-55 12-54 12h-166l-62-21c-34-11-91-37-125-57l-63-37-50-51-50-51-33-67-33-66-15-73-16-73 7-87 7-88h-21l-8 38c-4 20-7 71-7 112l2 75 17 65c9 36 31 92 48 125l32 60 60 60 60 60 71 37c39 21 96 44 125 52l54 15h82l82 1 48-10zm121-46c12-8 22-21 22-27v-12l-8 11c-4 7-16 13-26 15-11 2-21 10-24 17l-4 12h9c5 0 19-7 31-16zm-110-24c17-7 32-17 32-22v-10l-22 6c-13 4-61 10-108 13l-85 5-65-16c-75-19-135-52-205-111l-50-43-32-53-32-54-16-60-15-59v-73c0-39 5-95 11-122 6-28 9-59 7-68l-4-18-22 69-22 68v129l16 69 15 68 35 59 34 58 51 47c59 54 144 102 220 123l54 15 85-4 85-4 33-12zm658-11 6-11-11-11-11-11-11 11-11 11 6 11c4 6 11 11 16 11s12-5 16-11zm-699-53 12-11h-184l-62-24-61-23-59-47-58-47-39-76-39-76-4-74-5-73 11-45 10-45-9-9-9-9-10 25c-5 15-13 52-16 85l-7 58 16 73 15 73 28 50 27 51 49 44 49 44 61 30 62 30 55 8 55 9 50-5 50-4 12-12zm653-1v-15h-30v30h30v-15zm-44-36 6-11-11-11-11-11-11 11-11 11 6 11c4 6 11 11 16 11s12-5 16-11zm-593-61c49-21 52-25 39-45l-8-12-64 25-64 26-54-6-53-6-48-25-48-24-27-32c-60-71-86-163-79-276 4-71 6-84 17-101 4-7 6-16 3-19s-16 15-28 39l-23 43-4 90-4 90 21 55 21 55 31 38 30 37 47 27c25 15 66 33 91 40l46 12 55-5 55-6 48-20zm164-440-5-13v50l5-12c2-7 2-19 0-25zm-277-91c0-2-10-12-22-23l-23-19 19 23c18 21 26 27 26 19zm240 0c0-2-15-16-32-33l-33-29 29 33c28 30 36 37 36 29zM651 1009l20-10-6-9-6-9-43 5-44 6-21-21-21-21v-64l22-23 21-23h24c14 0 33 5 43 10l19 10 7-11 7-12-18-14-19-13h-81l-21 18c-61 49-57 143 7 178 29 16 83 18 110 3zm314-77c20-41 40-85 45-98l10-24h-37l-11 26-12 25-43-3-42-3-10-22-10-23h-33l22 48c12 26 33 73 47 104l24 57 7-7c4-4 23-40 43-80zm225 4c24-25 48-46 53-46h9l-4 65-4 65h31l-3-82c-1-46-4-92-5-102l-2-20-65 62c-36 34-66 62-68 62s-2-29 0-65l3-65h-34l-3 104-3 104 25-18c14-10 45-39 70-64zm321 73 20-10-6-8-5-9-43 5-44 5-21-27c-25-31-27-56-11-88 16-30 28-37 65-37s43 5 37 31l-5 19h-28v30h70v-89l-19-11c-11-5-37-10-58-10h-39l-23 16c-13 9-29 31-36 48l-13 31 5 33 5 32 30 25 30 25h34c20 0 44-5 55-11zm259-6v-18l-50 3-50 4v-62h80v-36l-40 4-40 4v-60l34-4c19-2 44-1 54 3l20 8-5-20-5-19h-137l5 28c3 15 1 62-4 105l-8 77h146v-17zm132-74-3-91 50 3 51 4v-35h-135l3 91 3 90-11 15-12 14h57l-3-91zm210 26-4-66 16-24 16-25h49l16 16 16 17-3 73-3 74h43l-9-37c-5-21-9-54-9-73v-35l-20-32-20-33h-66l-21 15-22 16-5 32c-3 18-7 58-9 90l-4 57h42l-3-65zm344 50 19-14-10-2c-5-1-28-2-50-3l-40-1v-38l39-13c21-8 45-19 52-25l13-11-11-17-11-18-17 17c-10 10-32 21-49 25l-31 7-15 21c-19 27-19 29 6 61l20 26h65l20-15zM750 830v-20h-30v13c0 8 3 17 7 20 12 13 23 7 23-13zm128-147-28-4v-18c0-9 5-22 12-29l12-12h-12c-6 0-16 9-22 21l-11 20 12 15 11 14 27-1 26-2-27-4zm109-47h22l-5-8c-3-4-13-8-24-8h-18l-6 16c-3 9-5 25-5 37l1 22 7-30 7-30 21 1zm30 22-5-13v50l5-12c2-7 2-19 0-25zm60-20-4-23v40l-1 40 5-17c2-10 2-28 0-40zm94 43-13-9-19 5c-29 8-23 13 14 13h32l-14-9zm89-10c0-4-6-8-14-8h-14l5 14 5 13 9-6c5-3 9-9 9-13zm119 5 12-14-11-7-11-7 6-15 5-16-16 13-16 14-9-15-9-14v75h19c10 0 24-6 30-14zm141 5-25-7v-38l25-8 25-7-24 2-24 2-10 17-11 16 13 16 13 16 22-1 21-1-25-7zm131-7 13-16-11-16c-5-10-18-18-27-20l-17-4-14 12c-8 7-15 18-15 24l1 11 10-17 10-18h19c23 0 32 13 24 35l-7 17-23-5-23-4 5 8c9 14 41 10 55-7zm86-38h22l-5-8c-3-4-13-8-24-8h-18l-6 16c-3 9-5 25-5 37l1 22 7-30 7-30 21 1zm132 40 12-14-11-7-11-7 6-15 5-16-16 13-16 14-9-15-9-14v43l20-5 20-5v34l-20-5-20-5v9c0 14 36 11 49-5zm79 7c-10-2-18-9-18-15s-3-9-6-5c-10 10 6 27 24 26l17-1-17-5zm105 0c-27-5-31-22-5-24l17-1-17-5c-25-6-22-21 5-26l22-4-27-2-28-1v70l28-1 27-2-22-4zm95 0c-20-5-24-19-8-26l11-5-13 2c-7 1-14 10-16 19l-3 17 23-1 23-1-17-5zm-991-55-5-13v50l5-12c2-7 2-19 0-25zm809 21 6-11-12-11-13-12 8 14 8 13-14 9-14 9h12c6 0 15-5 19-11zM904 635c-4-8-8-15-10-15s-4 7-4 15 4 15 10 15h9l-5-15zm346 0c0-1-9-5-19-8l-20-5 6 14 5 13 14-6c8-3 14-6 14-8zm24-1 6-15-10 6c-6 3-10 10-10 16 0 14 7 11 14-7zm889-5-11-11-18 5-19 5 23 1 22 1v23l7-6 7-7-11-11zm-39 1796c-4-8-4-22 0-30l5-15h39l6 16 6 17-11 13c-15 18-38 18-45-1zm-54-50-12-15 11-14 12-14h69v20l-12-4-13-5-10 20c-13 27-29 31-45 12zm-66-60-7-16 11-11 10-10 18 4 19 3v40l-23 3-22 3-6-16zM902 925c-7-14-12-30-12-35v-10h30c17 0 30 2 30 5 0 8-30 65-34 65-1 0-8-11-14-25zm438-260v-16l18 3c21 4 19 22-2 26l-16 3v-16z"/></g><g fill="#8d8f8f" transform="matrix(.1 0 0 -.1 0 300)"><path d="M0 1500V0h3000v3000H0V1500zm2095 994v-19l-17-3-18-3v19c0 10 3 22 7 26 12 11 28 0 28-20zm111-30c19-9 43-28 54-42l20-25v-65l-52-42c-29-23-66-57-81-76l-28-34-40-10-40-11-42-42c-23-23-141-135-262-249-121-113-242-229-270-258-27-28-63-61-79-73l-29-20 9 14c11 17 303 301 471 458 110 102 173 173 173 195 0 7-170-153-523-492-82-79-151-141-153-139-5 5 281 288 448 443 58 54 135 130 169 168l63 69-29-16c-17-8-149-129-294-269-317-304-390-372-397-366-2 3 89 94 203 204 115 109 266 256 337 326l130 128-7 6-7 7-62-56c-35-30-187-175-338-320-151-146-277-263-280-261-2 3 54 62 125 132 355 348 552 542 575 567 55 58 176 164 188 165 8 0 29-7 48-16zm-168-27 3-17-16-6-16-7-11 11-11 11 13 16c16 19 34 15 38-8zm-418-29c59-11 139-44 209-85l43-25-14-14-14-15-95 44-94 44-59 12c-33 6-88 11-122 11h-63l-68-16-68-15-75-37-75-37-72-71-72-70-41-85-40-84-16-75-16-75 7-70c3-38 11-90 17-115 15-66 71-179 112-227 33-38 47-73 28-73-12 0-76 70-109 120-36 56-59 109-78 180l-15 55v190l15 63c18 77 64 169 121 244l44 56 62 47c167 125 340 164 548 123zm358-31 3-17h-20c-23 0-35 15-26 31l7 10 16-3 17-3 3-18zm-390-43 77-16 60-30c33-16 64-33 70-39l9-9-10-10-9-9-60 29c-33 16-87 36-120 45l-59 15h-141l-55-15c-30-8-83-28-117-45l-63-31-60-56-60-56-35-61-34-62-17-64-16-64 4-95 5-96 22-65c12-36 38-89 57-117 19-29 34-56 34-59 0-4 7-12 16-19l17-12h-34l-33 39c-18 21-45 60-60 87l-26 50-20 77-20 77v56c0 31 7 86 15 123l14 68 31 64 31 65 52 57 52 58 59 37c134 87 272 114 424 83zm7-65c22-6 66-22 98-36l57-26v-18c0-23-4-23-33-4-37 24-132 54-195 60l-57 7-65-11-65-12-63-30-62-30-58-54-58-53-27-50-26-49-16-64c-27-115-13-235 41-341l26-51 50-53 49-52-9-6-9-5-37 26-37 27-39 59-40 59-16 52-16 51-5 89-6 89 13 56c7 31 24 81 38 111l25 55 66 66 66 66 66 31c85 41 125 50 224 51l80 1 40-11zm675-29v-20h-14c-8 0-18 5-21 10-8 14 3 30 21 30h14v-20zm-635-52 58-23 11-17 10-17-6-7-7-6-58 28-58 29h-220l-58-27-57-27-54-51-54-51-27-54-26-54-9-57-9-57 8-61c29-191 122-295 317-352 29-8 54-19 54-24v-9l-37 6c-50 8-83 20-83 32v9l-17-3-18-2-45 22c-25 13-64 41-86 64l-41 40-30 58-31 58-13 63-12 63 6 67 5 67 23 60 22 60 66 66 66 66 57 26c31 15 74 31 95 37l38 9 81-4 81-4 58-23zm583-5-11-14-16 16-16 16 15 9 14 9 13-11 13-11-12-14zm-43-33v-15l-17-3-18-3v42l18-3 17-3v-15zm-582-51c51-25 52-26 33-51l-13-17-48 24-48 25h-122l-50-24-50-24-32-33c-18-19-42-56-53-82l-22-49-5-54-6-54 18-66 18-66 38-48 38-48 53-26 53-26 55-6 56-6 64 18 63 18 43 40 42 41 11 40c6 22 11 54 11 71v32l14 11 14 12 5-8c3-4 8-23 12-42l7-33-12-44-13-44-39-45-39-44-55-26-55-26-67-6-67-5-57 17-58 16-47 33-48 32-37 55-38 54-16 65-16 65 6 59 6 59 26 56 25 56 32 33c40 41 86 70 140 88l42 14 70-4 71-4 47-23zm506-158c12-42 21-95 21-117v-39l-25-85c-14-47-23-71-21-54 3 17 8 53 11 80l7 49-12 65c-6 36-20 89-31 119l-19 54 11 14 12 13 12-10 13-11 21-78zm-469-227c-80-80-163-159-185-176s39 48 135 145c96 98 179 177 185 177 5 0-55-66-135-146zm313-74-16-15 7 25c3 14 6 52 7 85l2 60 8-70 8-70-16-15zm-72 28-11-33 5 34c3 18 6 52 7 75l1 41 4-42 4-41-10-34zm146 5-5-18v60l5-12c2-7 2-21 0-30zm-167-80-12-18 6 18c3 10 6 24 7 30l1 12 4-12c3-7 0-20-6-30zm140 0-12-18 6 18c3 10 6 24 7 30l1 12 4-12c3-7 0-20-6-30zm-79-30c-12-20-14-14-5 12 4 9 9 14 11 11 3-2 0-13-6-23zm-78-8c-3-9-8-14-10-11-3 3-2 9 2 15 9 16 15 13 8-4zm197-54c-28-56-35-52-8 4 12 24 23 43 26 41 2-2-6-22-18-45zm-230 6c0-2-10-12-22-23l-23-19 19 23c18 21 26 27 26 19zm60-31c0-2-8-10-17-17l-18-14 14 18c13 16 21 21 21 13zm-125-26c-3-5-16-15-28-21l-22-10 25 20c28 23 34 26 25 11zm256-18c-5-10-18-25-27-33l-18-14 24 33c26 35 36 42 21 14zm-81 4c0-2-8-10-17-17l-18-14 14 18c13 16 21 21 21 13zm-235-26c-3-5-12-10-18-10h-12l15 10c19 12 23 12 15 0zm-45-20c-8-5-24-9-35-9l-20 1 25 8c35 11 48 11 30 0zm-67-17c-7-2-19-2-25 0l-13 5h50l-12-5zm377-6c0-2-10-12-22-23l-23-19 19 23c18 21 26 27 26 19zm-60-51c0-2-8-10-17-17l-18-14 14 18c13 16 21 21 21 13zM656 1006l19-15-11-11-11-11-24 11-25 11-27-10-27-11-11-24-12-25 7-25 6-26 26-17 26-17 31 12 31 12 14-14 13-13-34-17c-19-9-42-16-52-16-25 0-72 27-89 52l-16 22v88l29 29 29 29h88l20-14zm321-91 50-105h-57v40h-99l-6-20-6-20h-39l26 58c14 31 35 78 46 105 11 26 24 47 27 47 4 0 30-47 58-105zm197 42 68-64-4 64-3 63h56l-11-19-10-20V806l-63 62c-34 34-66 62-71 62h-8l4-60 4-60h-41v105c0 58 3 105 6 105s36-28 73-63zm347 52 20-10-11-14-12-15-18 10c-28 15-55 12-81-9l-23-18 1-39 1-38 22-18 22-18h58v50h-30v30h75l-3-49-4-50-30-10c-41-15-54-14-93 5l-33 16-17 35-17 35 7 35 6 35 26 24 26 24h88l20-11zm257-10 3-17-53 2-53 1-3-29-4-28 41 4 41 4v-42l-40 4-40 4v-62h86l12 12 12 12v-54h-150v186l-12 12-13 13 85-3 85-3 3-16zm134 9-12-12V840h76l12 12 12 12v-54h-135l4 90 3 91-12 14-12 15h76l-12-12zm208-66v-78l12-12c7-7 22-12 34-12h23l15 22 16 22v112l-12 12-12 12 40-1 39-1-12-5-13-5V861l-22-25-23-26-32-6-32-6-31 30-30 30v138l-12 12-12 12h64v-78zm341 67 20-10-11-14-11-13-28 11-28 10-17-6-16-6v-29l49-17 49-16 12-29 12-28-11-20-11-20-29-10-30-11-35 10c-38 11-51 23-40 40l6 11 11-11 11-11h74l6 15 5 14-22 16c-12 8-27 15-33 15s-23 9-38 21l-26 20v18c0 9 7 27 16 39l15 22h40c22 0 49-5 60-11zM750 830v-20h-13c-8 0-16 3-20 6-9 10 4 34 19 34h14v-20zm137-137 18-7-25-6-25-6v-39l19-3 19-4-7 17-6 17 12-4c18-6 16-29-4-41l-17-11-20 18c-25 23-26 34-4 58 19 21 16 20 40 11zm85-30 3-26 11-4 11-4 8 33 8 33 4-22 4-22-11-20c-12-24-30-27-48-9l-12 12v56h19l3-27zm105-35-4-23v90l4-22c2-13 2-33 0-45zm96 55-13-5-1-36-2-37-4 30-4 30-17 13-16 12 35-1 34-1-12-5zm92-23c8-16 15-35 15-42v-12l-12 12c-7 7-20 12-30 12h-18l-1-12-1-13-4 12-5 12 16 30c8 17 18 31 20 31s11-13 20-30zm122 14 6-15-11-11-10-10 5-17 5-16-15 18c-18 21-27 22-27 1v-15l-10 6-10 6v69h61l6-16zm153 8c0-5-10-8-22-8l-23 1v-40l30-5 30-6-18-7-18-7-20 10c-20 11-23 27-13 54l6 16h24c13 0 24-4 24-8zm114-14 11-18-21-20-20-21-17 7c-9 3-19 15-22 25l-7 20 13 15 12 15 20-3c11-2 25-11 31-20zm81-38h15v24c0 14 5 28 10 31l10 6v-60l-17-10-17-9-18 9-18 10 1 32 1 32 9-32 10-33h14zm140 50 7-11-11-13-11-13 7-19 6-19-21 19-22 19v-11c0-7-4-12-10-12h-10v28c0 16 3 32 7 35 10 11 51 8 58-3zm95 1v-9l-22 4-23 5 23-17c12-9 22-22 22-29 0-17-23-25-41-14l-14 9h50l-24 19-24 18 7 12c8 13 46 15 46 2zm83 2c-13-2-23-9-23-14v-9l23-1 22-1-17-5c-10-2-18-8-18-13s8-10 18-12l17-4-27-6-28-5v77l28-1 27-2-22-4zm93 0-20-5 25-19 24-18-15-14-15-15-20 8-20 9h23l22 1v10c0 6-6 10-14 10s-18 5-21 10c-10 16 4 30 28 29l22-1-19-5zM727 653c-20-2-52-2-70 0l-32 4h140l-38-4zm1402 1776-14-8 11-18c6-10 17-18 25-18h14l3 21 3 21-14 6-14 5-14-9zm-62-63-5-14 11-11c16-16 34-14 41 5 8 21-1 34-24 34h-18l-5-14zm97-31c-8-19 3-35 26-35h18l4 13c3 6 3 18 1 25l-5 12h-39l-5-15zm-158-21c-8-21 1-34 24-34h18l5 14 5 14-11 11c-16 16-34 14-41-5zm124-19-12-14 7-11c8-12 32-13 39-1 7 11-3 41-14 41-4 0-13-7-20-15zm-47-42-13-5v-38h51l-3 22c-3 23-15 30-35 21zM902 920c-12-30-7-40 19-40h19v13c0 7-6 22-14 33l-15 19-9-25zm338-270c0-5 5-10 11-10h10l-6 10c-3 6-8 10-11 10-2 0-4-4-4-10zm102 18c2-6 10-14 16-16l12-4v32h-32l4-12zm260-1-11-13 9-13 8-14 17 7 16 6-3 17c-4 22-22 27-36 10zm228-2v-17l11 4c6 2 11 8 11 13s-5 11-11 13l-11 4v-17z"/></g><g fill="#504e4e" transform="matrix(.1 0 0 -.1 0 300)"><path d="M0 1500V0h3000v3000H0V1500zm2102 1008c3-7 3-19 1-25l-5-13h-17c-10 0-21 3-24 6l-6 7 10 18c11 22 35 25 41 7zm91-34c18-9 44-28 60-42l27-26v-76l-22-18c-12-9-52-45-88-78l-65-62-31-6-31-7-29-31c-16-16-83-80-149-141s-202-190-303-287c-177-170-202-191-202-173 0 4 140 142 310 307 171 164 316 308 322 319l11 22-21-15c-11-8-162-151-336-318l-315-302-5 9-6 9 321 307c287 276 353 345 334 345-7 0-313-288-521-492l-142-138h-26l64 66c36 36 185 181 333 321l267 255v31l-72-69c-40-37-191-182-336-321-234-225-292-276-280-244 3 10 294 292 529 513l136 128 19 35c10 19 22 35 26 35s46 36 92 80c47 44 88 80 91 80s20-7 38-16zm-158-39v-20l-22-3-23-3v19c0 24 10 34 30 30l15-3v-20zm-363-38c42-13 106-41 143-62l66-37-16-18-16-17-77 38c-86 43-168 67-257 76l-60 5-85-16-85-15-85-43-85-43-67-68-68-68-39-82-39-82-13-56-12-57 5-103 5-104 22-59c30-84 77-159 142-224l57-57 55-33c30-18 88-45 129-59l73-26 115-1 115-1 70 22 70 22 60 36 60 36 58 57 57 56 39 76 39 75 16 61 16 62v157l-14 53c-8 29-23 70-33 91l-19 38 17 22 18 22 15-23c9-13 25-53 38-88l22-65v-110l1-110-24-75c-29-94-47-130-106-207l-46-62-62-49c-75-59-142-95-222-119l-60-18-125 1h-125l-80 28c-44 15-105 41-135 58l-55 31-75 76-75 76-37 70c-46 89-66 158-74 255l-7 76 17 85 17 84 40 82 40 83 57 62 57 61 73 48 72 47 63 21c35 12 83 26 108 31l44 9 95-4 95-3 77-25zm308-17v-21l-16-6-15-6-11 11-11 11 6 15 6 16h41v-20zm-377-46 72-16 67-35 68-35-10-18-10-19-44 25c-63 35-149 63-220 70l-62 6-73-12-73-12-81-41-82-41-55-55-55-56-32-61-33-61-16-69-16-69 5-80 5-80 21-65 22-65 45-67 45-66 52-41c68-52 148-88 239-107l73-16 70 6c89 8 135 21 210 57 119 58 193 140 240 269l27 75 5 70 5 70-17 65c-9 36-18 73-20 83l-4 17h8c4 0 18-23 32-52l24-51v-212l-23-58c-12-32-31-75-42-96l-19-39-69-70-68-70-42-21c-23-11-48-21-57-21-8 0-15-4-15-9v-9l-65-16-64-16h-166l-70 19c-38 10-83 24-98 30-50 20-143 89-190 141l-47 52-30 62c-16 34-36 89-45 121l-15 59v150l16 65 16 66 35 67 35 68 72 67 71 68 68 33 67 33 63 14c34 7 88 14 120 14l58 1 72-16zm2-65c22-6 66-22 98-36l58-26-3-16-4-16-14 2c-8 1-42 13-75 27-33 13-88 29-122 35l-62 10-68-10-68-10-64-29-63-30-51-42-50-42-33-52-32-51-18-59-18-59 1-85v-85l23-65 22-65 43-61c81-113 180-166 356-189l46-6 74 15 74 16 63 32 64 32 43 48c24 27 56 73 70 102l26 53 11 67 11 68-11 71-11 72 9 9 10 10 14-35c8-19 17-59 21-90l7-56-21-80-20-79-25-44c-33-59-107-130-179-174l-59-35-68-15-69-16h-117l-59 15c-33 8-92 31-131 50l-72 35-53 58-54 58-28 58-28 58-16 71-15 72 7 68 6 68 20 56c27 80 61 133 121 193l53 51 80 40 80 39 55 9 55 10 60-5c33-3 78-10 100-15zm670-29v-15l-22-3-23-3v42l23-3 22-3v-15zm-651-45c38-13 76-31 85-40l15-15-11-11-12-12-63 29-63 29h-200l-65-31-65-31-47-42-47-42-32-65-33-66-4-83-4-83 20-69 21-69 40-55 39-55 40-28c22-15 73-39 113-53l73-25 87 4 87 4 65 32 65 32 51 56 51 55 17 57 17 57-1 93-1 92h8c10 0 28-45 36-91l6-37-12-58c-7-33-24-84-39-114l-26-54-51-51-51-50-66-28-67-27-58-6-59-7-68 12-68 12-63 29-63 28-49 46-49 46-25 47c-15 27-34 75-43 107l-18 60 5 92 5 92 31 66 31 66 51 49 50 48 59 32c73 39 116 49 211 50l75 1 69-25zm604 2 3-17-16-6-16-7-11 11-11 11 7 16 6 16 17-3 18-3 3-18zm-48-47v-20h-40v40h40v-20zm-582-48c46-24 48-29 29-55l-12-18-45 22-45 22-47 5-46 4-55-17-55-17-36-29-35-30-32-64-32-65-1-67v-68l17-52 18-51 41-47 40-46 40-20c22-11 64-24 93-29l53-9 60 13 60 12 35 24c20 13 47 42 61 64l26 40v94l19 23 19 24 11-28c6-16 11-46 11-68v-40l-14-33c-7-18-28-49-46-70l-33-37-49-25-49-25-57-10-56-11-60 12c-33 7-81 22-106 35l-46 23-43 47-43 46-26 57-27 57v190l26 55 26 55 39 38c38 38 93 71 144 88l25 8 80-3 80-3 43-21zm176-245c-8-22-345-342-363-345l-16-3 185 180c102 99 188 180 192 181h7l-5-13zM646 1015l35-14-13-20-12-20-12 10-13 10-38-3-38-3-13-28-14-28 12-29 12-29 28-9 28-10 25 13 25 13 11-11c17-17 13-25-19-42-38-20-75-19-111 2l-29 17-15 33-16 33 6 32c8 42 22 61 60 81s57 21 101 2zm329-91c28-58 51-109 53-113 1-4-13-7-32-7h-35l2 21 2 20-47 3-48 3v-51h-62l4 8c63 132 88 185 93 202 3 11 9 20 13 20s30-48 57-106zm194 40 71-66v108l-10 10-9 9 39 1 40 1-9-11-10-12-3-103-3-102-68 68-69 68 4-67 4-68h-70l12 12 12 12v167l-10 20-11 19h9c5 0 42-30 81-66zm341 51 29-15-5-14-5-13-48 5-47 4-17-17-17-16v-68l16-15c18-19 59-30 73-21 6 3 11 15 11 26v19h-30v40h75l-1-52-2-51-28-15-27-14-41 5-41 6-22 26c-13 14-26 38-29 52l-7 26 9 36 9 35 34 23 34 23h24c13 0 37-7 53-15zm268-17 3-25-55 5-56 4v-54l40 4 40 4v-57l-16 9-16 9-24-5-24-4v-48h86l12 12 12 12v-65l-84 3-85 3 10 10 9 9v175l-10 6c-5 3-10 9-10 13v7l83-1 82-1 3-25zm134-69-3-89h13c7 0 28 4 46 9l32 10v-60l-74 3-75 3 5 20c8 35 9 159 1 180l-7 21 32-4 33-4-3-89zm210 34c-3-34-2-74 2-87l6-25 20-6 19-6 22 11 21 12-4 81-3 82 33 1 32 1v-8c0-4-4-11-10-14l-10-6v-69c0-37-3-76-6-85-8-20-56-45-87-45h-25l-23 19-23 18-7 82-7 82-11 12-10 13 37-1h38l-4-62zm327 56c33-12 36-16 23-37l-9-13-28 11-28 11-19-7-19-6 4-11c2-7 23-19 47-28l43-16 14-18c7-11 13-29 13-41v-23l-26-20-27-21h-29c-16 0-42 7-59 15l-29 16 11 20 11 21 18-17 18-16 29 3 28 3 3 15 3 16-53 24-53 25-3 31-3 32 27 21c30 24 48 26 93 10zM756 839l6-11-16-16-16-16-11 11-12 12 6 15 6 16h15c8 0 18-5 22-11zm141-156 4-11-19 5-20 5-7-12-7-11 12-14c7-8 16-15 21-15h8l-5 15-6 15h32v-14c0-7-7-19-15-26l-16-13-24 11-25 12v49l18 10c21 13 44 10 49-6zm75-23 3-25h20l3 25c2 14 8 30 14 35l9 10-3-39-3-39-17-10-16-11-16 13-16 13v72l9-9c5-6 11-21 13-35zm213 30 6-10-15-6-16-6v-58h-20v60h-10c-5 0-10 7-10 15v15h59l6-10zm86-40 18-40h-14c-7 0-15 6-18 13l-4 12-22-13-21-12v11c0 17 32 80 38 74 3-2 13-23 23-45zm106 38c8-13 11-78 4-78-3 0-13 7-23 17l-18 16v-16c0-10-4-17-10-17h-10v38c0 21 3 42 7 45 11 11 41 8 50-5zm157 6 16-6-5-9-6-8-13 5-13 5-12-14-11-14 14-13 15-12 10 6 10 6 5-9 6-10-20-6c-23-7-36-1-50 25l-10 20 20 20c22 22 22 22 44 14zm110-7 18-13-4-24-3-23-17-11-18-11-17 11-18 11-3 23-4 24 18 13c10 7 21 13 24 13s14-6 24-13zm112-66-16-16-18 11-17 11-3 32-3 31h20l3-27 3-26 13-5 12-4v30c0 16 3 32 8 36l7 8 3-32 3-33-15-16zm110 65 19-15-12-19-12-19 12-12 11-11h-9c-5 0-17 7-27 17l-18 16v-16c0-10-4-17-10-17h-10v78l13 5c19 8 22 8 43-7zm102-6 5-13-17 6-16 6v-9c0-6 6-10 14-10s18-5 22-11l6-11-15-15-15-16-19 8-18 8 25 7 25 7-27 11c-32 13-35 27-10 41 21 12 34 9 40-9zm190 0 5-13-12 7-11 7v-9c0-6 7-12 15-16 20-7 19-32-1-40l-16-6-16 10-17 9 23 1h22v10c0 6-6 10-14 10s-18 5-21 10l-7 11 13 15c14 17 31 14 37-6zm-1078-31v-40l-10 6-10 6v69h20v-41zm995 30-7-10-14 5-14 5v-9c0-6 8-11 18-11l17-1-17-5c-10-2-18-9-18-14v-10l14 3 15 3 1-10 1-10-26-3-25-3v25c0 13-3 31-6 40l-6 16h73l-6-11zM760 660v-10H540v20h220v-10zm1690 0v-10h-211l6 9 5 10h200v-9zm-325 1761c-9-16 3-31 26-31h20l-3 17-3 18-17 3-16 3-7-10zm-55-60v-19l14-5c18-7 26 1 26 25v18h-40v-19zm104-25c-7-19 3-36 22-36h15l-3 22c-2 12-9 23-15 26l-13 4-6-16zm-157-12c-4-4-7-16-7-26v-19l18 3 17 3v19c0 20-16 31-28 20zm110-38c-7-16 1-26 20-26h13v40h-14c-8 0-16-6-19-14zm-53-47-6-11 10-10 11-11 15 6 16 6v31h-19c-11 0-23-5-27-11zM902 916l-12-26h25c28 0 31 8 12 34l-13 18-12-26zm438-246c0-5 7-10 16-10h15l-6 10c-3 6-10 10-16 10-5 0-9-4-9-10zm263-6-6-15 12-12 11-11 11 11 12 12-6 15c-4 9-11 16-17 16s-13-7-17-16zm227 6c0-5 7-10 16-10h15l-6 10c-3 6-10 10-16 10-5 0-9-4-9-10z"/></g><g fill="#393839" transform="matrix(.1 0 0 -.1 0 300)"><path d="M1436 2984c-8-20 2-33 12-18 4 6 17 14 30 18l22 7v-15c0-9 5-16 10-16 6 0 10 7 10 15v15h25l2-35 3-35-18-1h-17l20-8c11-5 23-7 28-4 4 2 7 0 7-5 0-12-24-22-51-22h-19v-30c0-16-3-30-7-30-5 0-13-11-20-25-12-27-5-33 16-12l13 12 5-12 5-13h61l-7-31c-3-17-6-35-6-40v-9h-59l5 14 6 15-23-2-24-2-17-17c-10-10-18-23-18-29v-11l-21 5-21 6 6-15 5-14-17-1-17-1 13-5c16-6 15-20-1-26l-14-5 2 17c0 9 5 22 9 29l8 13-7 7-8 7-4-12c-3-7-9-13-14-13-6 0-8 3-6 8 3 4-1 13-9 20s-14 11-15 10c0-2-2-15-4-30l-4-28h29v-21c0-11 7-27 15-35 8-9 15-22 15-30v-14l-21 12-22 13-4-12c-3-7-11-13-19-13s-14-4-14-10c0-5 7-10 15-10s15-4 15-9v-8l48-10 49-9 19 6 19 7 6-9c3-5 29-11 57-15l52-6v-8c0-5-8-9-17-10-10-1 17-9 59-20 83-20 189-64 239-100l31-22-19-18-18-18-88 44-89 43-89 17-89 16-80-11c-95-13-137-27-230-76l-68-36-66-68-67-69-38-83c-46-98-61-163-61-261v-72l15-64 15-64 38-71 37-71 70-70 70-70 70-37c39-20 99-44 135-54l65-18 100 1h100l81 27 81 26 70 49c84 59 139 119 182 200l31 60 20 77 20 77v122l-16 65c-8 36-24 80-34 98l-20 33 16 24c9 14 20 25 24 25 12 0 47-80 64-147l16-61v-178l-15-59c-8-33-34-98-57-144l-41-85-71-70-72-71-58-34-58-35-81-24-82-24-95-1-95-1-74 17-73 18-72 34c-39 19-96 54-127 79l-57 44-45 60c-26 33-57 79-70 103l-23 44h-27c-15 1-27-3-27-7s-8-8-17-8h-18l15 10 15 10h-30l14 9 13 8-13 24c-7 13-12 28-11 32s-5 10-13 13l-15 6v46l-15 6-15 5-1 23-1 23-5-12-5-13h-88v-26l-30-2-30-2v15c0 8-4 15-10 15-5 0-10-7-10-15v-15l-17-1-18-1 15-5c8-3 19-11 23-17l9-11 5 13 5 12h47l4-17 5-18 1 18 1 17h48l-10-40c-9-36-28-56-28-30v10l-27-1-28-1 18-5 17-4v-29h-18c-10 0-28-9-40-20l-22-21v21l-22 1-23 1 13 5 12 5-1 16-1 17-5-12c-2-7-11-13-19-13h-14v-29l-36-7-36-7-15 15-15 15-36-8-37-8-11 14c-14 19-24 19-24 0v-15h-40v30h15c8 0 15 5 15 10v10h-68l-5 13-5 12-1-18c-1-10 6-26 15-34l16-16-6-21c-3-12-6-34-6-50v-28l-14 11-14 12-5-13c-3-7-3 4 0 26l6 38-13 8c-7 4-30 7-51 6l-39-2 6 18 5 18H61c-6 0-11-7-11-15 0-18-16-20-26-3l-8 12 12 4c7 2 12 10 12 18v14h54l-19 14-18 13 6 16 6 15-20 5-19 5v19c-1 10-7 32-15 48l-13 30-1-882L0 0h3000v3000H1442l-6-16zm167-39c-3-9-8-14-10-11-3 3-2 9 2 15 9 16 15 13 8-4zm17-20c-7-8-16-15-21-15s-1 8 9 18c20 22 31 19 12-3zm-3-101c-3-3-12-4-19-1l-13 5 19 1c11 1 17-2 13-5zm-50-40c-3-3-12-4-19-1l-13 5 19 1c11 1 17-2 13-5zm13-89v-25l-17 1-18 1 13 5 12 5v19c0 10 2 19 5 19s5-11 5-25zm-106-10c-4-8-10-15-15-15h-8l5 15c4 8 10 15 15 15h8l-5-15zm633-181 6-16-15-14-14-15-17 7-17 6v17c0 23 9 31 32 31h19l6-16zm110-40 45-26 12-29 12-30-4-29-4-29-37-27c-20-15-57-48-82-74l-47-48-32-7-33-7-150-142c-83-77-233-221-334-318-171-166-203-192-203-169 0 5 137 141 305 302 167 160 312 303 321 318 18 27-171-148-470-436l-179-172-10 6-9 5 68 70c38 38 175 171 306 294 130 124 249 241 264 262l28 37-25-20c-35-29-405-380-540-513l-116-114-6 9-6 10 157 155c201 197 377 366 425 408 20 18 47 46 59 63l21 30-11-4c-6-2-157-145-336-316-178-172-329-313-335-313s-11 4-11 9 134 137 297 293c339 322 370 353 389 390l14 26 32 20c18 12 60 48 93 81l59 61h15c8 0 34-12 58-26zm-670 10c-3-3-12-4-19-1l-13 5 19 1c11 1 17-2 13-5zm497-29 5-14-15-15-15-15-14 5-15 6v17c0 10 3 21 7 24 3 4 14 7 24 7h17l6-15zm-60-60 5-14-14-11-15-12-15 6-15 5v39l13 5c17 6 34-2 41-18zm-369-50c65-16 187-74 192-90 1-5-1-16-6-23l-8-13-69 35c-38 18-94 40-124 47l-55 13-80-1-80-2-66-20-65-21-60-38c-79-52-134-107-172-174l-32-56-20-78-20-77v-104l19-75c25-98 58-161 118-228l48-53 52-33 51-34 75-25 76-25h197l55 16c72 21 123 48 186 96l51 39 36 52 36 52 26 75 27 75v180l-22 53c-11 29-21 60-21 69v16l19-17c11-10 29-41 42-69l22-52v-85l1-85-18-59c-10-33-31-87-48-120l-30-60-62-61-61-60-62-33c-80-42-141-60-229-68l-71-6-84 16-84 17-82 39-82 40-60 61-61 60-40 82-41 82-14 83-15 83 10 72c6 40 20 100 31 135l21 62 40 60 39 60 52 45c28 25 82 61 118 80l67 35 58 14 59 14 80 1 81 1 59-15zm33-78c40-14 84-33 98-42l24-16-10-19-11-20-47 24c-26 13-71 31-101 40l-55 16h-142l-55-16c-30-9-77-29-106-45l-51-29-60-64-60-65-23-58-22-58-5-96-4-96 17-59c22-76 57-136 117-200l49-52 62-30c75-36 146-52 236-52h69l63 20c35 11 87 33 116 50l51 29 36 44c19 24 47 69 61 100l26 56 10 60 9 61-10 66c-6 37-16 76-21 86-6 11-8 22-5 25 11 11 36-7 52-39l17-33 5-66 4-65-10-51c-6-27-21-76-33-108l-21-58-67-67-66-67-66-32-66-32-77-14-77-13-69 9c-132 16-231 63-318 150l-52 52-30 61c-16 34-37 90-46 126l-17 65 6 80 6 81 24 66 24 66 38 52c68 93 197 176 310 199l50 10 75-3 76-4 72-25zm628-8 6-11-15-15-15-15-11 6c-6 4-11 16-11 27v19h19c11 0 23-5 27-11zm-613-66 68-32-11-21c-6-11-12-20-15-20-2 0-26 11-54 25l-51 26-59 10-59 11-66-10-65-11-53-26-53-26-52-51-52-51-27-60-27-60-4-61-5-61 11-55c6-30 22-79 36-107l24-53 46-49 47-50 75-31 75-31 66-6 67-5 65 16 64 17 46 29c63 40 105 87 132 145l23 50v123l-1 122h9c4 0 17-19 27-42l20-43v-111l-16-55c-21-71-53-125-106-176l-43-42-70-33-70-33-115 1-115 1-57 22-57 22-56 41-56 42-35 53c-43 65-63 119-73 203l-8 65 7 55c5 30 18 81 30 112l21 57 45 49c54 61 126 108 202 133l57 19 100-3 100-3 68-31zm565 14 3-17-16-6-16-7-11 11-11 11 7 16 6 16 17-3 18-3 3-18zm-45-41 6-15-15-12-15-12-16 15-15 16 6 11c4 6 15 11 26 11h18l5-14zm-604-44 44-17 11-17 11-18-16-15-15-16-50 23-49 22h-55l-55 1-47-18-47-18-45-50-44-49-16-47-16-47v-125l21-58 22-57 47-46 46-47 53-18 54-17 71 4 71 5 40 21c78 40 115 97 115 176v43l20 18c25 22 28 19 38-36l8-44-9-42-8-43-49-53-50-54-52-23-53-23-65-5-65-4-54 16c-30 9-73 27-97 41l-43 25-35 43c-20 24-46 66-58 93l-23 49v210l25 50 25 50 43 43 43 43 52 25 52 24 80-1h80l44-17zm202-249c-14-27-358-363-370-363-6 0-11 3-11 7s82 90 182 190l183 183h26l-10-17zM50 1630c0-5-4-10-10-10-5 0-10 5-10 10 0 6 5 10 10 10 6 0 10-4 10-10zm600-70c0-5-2-10-4-10-3 0-8 5-11 10l-6 10h10c6 0 11-4 11-10zm-283-78c-14-18-15-13-9 33l6 40 6-30 6-30-9-13zm135 18 5-30h-17v30c0 17 2 30 4 30s6-13 8-30zm-265-12-5-13v50l5-12c2-7 2-19 0-25zm20 0-5-13v50l5-12c2-7 2-19 0-25zm63-22c0-8-4-18-10-21l-10-6v41h10c6 0 10-6 10-14zm106-13c-10-10-19 5-10 18l8 13 4-13c2-7 1-15-2-18zm-195-30c-12-20-14-14-5 12 4 9 9 14 11 11 3-2 0-13-6-23zm748-503 59-120h-90l12 15 13 16-10 10-10 10-39-3-39-3 1-22 1-23h-73l53 111c29 60 53 114 53 120 0 24 15 0 69-111zm-321 95 22-16-12-19-12-19-17 10c-10 5-28 9-40 9h-22l-19-17-18-16v-60l17-19 16-18h53l12 12 12 12 18-18 17-17-24-20-23-19h-90l-28 29-29 28-7 28-7 28 9 36 9 35 34 23 34 23h73l22-15zm513-52 69-66v96l-17 19-16 18h93v-10c0-5-4-10-10-10h-10V800h-7c-4 0-36 28-71 63l-64 62 4-62 4-63h-61v230h8c5 0 40-30 78-67zm344 55 25-11v-12c0-7-6-18-14-24l-14-12-7 11-6 10h-62l-19-17-18-16v-53l16-22 15-22h69v40h-41l3 18 3 17 43 3 42 3V822l-31-11c-18-6-48-11-66-11h-35l-34 34-34 34v41c0 51 15 83 48 104l27 16 32 1c18 0 44-5 58-12zm265-25v-37l-12 12-12 12h-76v-50h16c8 0 24 5 35 10l19 11v-67l-41 4-41 4 4-23 3-24 37-2 37-3 6 10c3 5 10 10 16 10h9v-60h-174l12 12 12 12v165l-15 15c-8 8-15 17-15 20s41 6 90 6h90v-37zm142 25-12-12V850h80v10c0 6 5 10 10 10h10v-70h-174l12 12 12 12v175l-10 6c-5 3-10 10-10 16v9h94l-12-12zm210 0-12-12V880l21-21 20-20 22 14 22 14 3 68 3 67-12 14-11 14h95l-16-18-17-19V849l-25-24-24-25h-78l-23 25-23 24-5 76-5 75-8 6c-5 3-9 9-9 15v9h94l-12-12zm321 1c30-16 30-15 17-39l-11-21-14 11-14 11-26-3c-14-2-27-7-28-13l-2-10 40-13c22-7 47-20 57-29l18-16v-56l-22-21-22-20h-31c-32 0-95 18-95 27 0 2 5 13 10 24l11 19 24-16 25-16 25 6 25 6v25l-53 25-52 25-3 32-3 31 22 21 23 21h29c15 0 38-5 50-11zM755 829v-24l-18-3-17-3-6 15-6 16 12 15c7 9 18 14 24 12l11-4v-24zm143-144c-2-5-10-10-18-10h-15v-38l13-5 12-4-6 16-6 16h33l-3-22-3-23-23-3-23-4-15 12-14 12v22c0 12 6 28 12 34l13 13 23-3 23-3-3-10zm72-15v-30h30v60h21l-3-36-3-37-16-10-16-10-17 6-16 6v81h20v-30zm119-32 1-28h-30v38c0 21 3 42 7 46l7 7 7-18c4-10 8-30 8-45zm101 47v-15h-30v-60h-20v60h-10c-5 0-10 7-10 15v15h70v-15zm80-25c24-47 24-50 5-50-8 0-15 5-15 10 0 6-7 10-15 10s-15-4-15-10c0-5-7-10-15-10s-15 2-15 5c0 10 40 85 45 85 3 0 14-18 25-40zm107 32 11-7-1-38-1-37h-12c-7 0-15 6-18 13l-6 12-6-12c-3-7-10-13-15-13h-9v90h23c12 0 27-4 34-8zm171-9 4-13h-53l3-17 4-18 22 2 22 3v-10c0-5-5-12-11-15l-10-7-24 6-24 6-6 21-7 20 18 20 18 20 20-3c11-2 21-9 24-15zm102 3 12-15-4-22-3-22-17-11-18-11-17 11-18 11-3 23-4 24 18 13c23 17 39 16 54-1zm72-26 3-25h20l3 33 3 32h20l-3-36-3-37-16-10-16-10-17 6-16 6v85l9-9c5-6 11-21 13-35zm145 32 11-7-1-38-1-37h-13c-7 0-13 5-13 10 0 6-5 10-11 10h-10l6-10 6-10h-31v90h23c12 0 27-4 34-8zm104-9 14-16-25 6-25 6 23-16c12-8 22-22 22-29v-14l-26-6-25-7-12 12-11 11h49l-25 19-24 19 13 16c17 21 35 20 52-1zm109 7c0-6-10-15-22-20l-23-9h18l18-1-6-9-5-10 10-6c5-3 10-10 10-16v-9h-70v90h70v-10zm86-2 8-12-13-4-12-4 18-13 17-13-14-16-13-17-20 3-20 3-5 14-4 13 22-7 23-7-7 11c-4 6-14 11-22 11h-14v18c0 10 3 22 7 25 11 11 41 8 49-5zM760 660v-10H530v20h230v-10zm1700 0v-10h-220v20h220v-10zm-330 1750v-21l18 3 17 3v30l-17 3-18 3v-21zm-55-39c-8-15 3-31 21-31h15l-3 17c-4 20-24 28-33 14zm98-37-6-15 12-12 11-11 11 11 12 12-6 15c-4 9-11 16-17 16s-13-7-17-16zm-160-20-6-15 12-12 11-11 11 11 12 12-6 15c-4 9-11 16-17 16s-13-7-17-16zm120-29c-3-9-3-18 0-21 9-9 27 6 27 22 0 19-19 18-27-1zm-59-46-6-11 10-10 11-11 15 6 16 6v31h-19c-11 0-23-5-27-11zM906 915c-8-22-3-28 19-23l16 3-14 19-14 19-7-18zm442-252c7-3 16-2 19 1 4 3-2 6-13 5l-19-1 13-5zm252-8v-15h40v30h-40v-15zm-160 2105v-10h45l-15 10c-19 13-30 13-30 0zm-50-30v-10h40v20h-40v-10zm-170-144c0-8-6-17-12-19l-13-5 20-1 21-1 1 20 2 20h-10c-5 0-9-6-9-14zm260-136c0-5 5-10 10-10 6 0 10 5 10 10 0 6-4 10-10 10-5 0-10-4-10-10zm-940-660c0-5 5-10 10-10 6 0 10 5 10 10 0 6-4 10-10 10-5 0-10-4-10-10zm-230-141v-10l10 6c6 3 10 8 10 11 0 2-4 4-10 4-5 0-10-5-10-11zm-87-19-23-9v-25l12 12c7 7 21 12 33 11h20l-20-9-20-9h12c6-1 18-4 27-7l16-6v52l-17-1c-10 0-28-4-40-9z"/></g><g fill="#2b2a2b" transform="matrix(.1 0 0 -.1 0 300)"><path d="M2580 2990c0-5 5-10 10-10 6 0 10 5 10 10 0 6-4 10-10 10-5 0-10-4-10-10zm40-1v-11l15 6 15 5v-8c0-5 11-12 25-15l25-6 22 11 22 12 4-12 4-11h59l5-15c4-8 12-15 20-15h14v-29l-17-4-18-5 18-1 17-1v-30h51l15-14c16-17 19-36 4-36-5 0-10-6-10-14s-5-16-11-18l-11-4 7-27c4-15 11-27 16-27s9-7 9-15-3-15-6-15c-10 0-34 28-34 39 0 6-4 11-10 11h-10v-50h-40l-2-62c-3-92-1-107 16-123 21-21 39-19 60 10 10 14 25 25 32 25h13l-1-42c0-24-3-37-5-30-8 21-21 13-32-19l-11-32v-117h40v-10c0-5-4-10-10-10h-10v-60h-21c-11 0-27-6-35-14l-14-15v-111h-20v-80h40v-30h90v-15c0-8-4-15-10-15h-10v-60h-30v-15c0-8-4-15-10-15-16 0-12 22 8 36l17 13-12 12-13 13v-24h-40l-1 23-1 22-5-12-5-13h-58v10c0 6-4 10-9 10h-9l5-20c3-11 9-20 14-20s9-7 9-15-5-15-11-15h-10l3-32 3-33 23 3 22 3v-59l-17-33c-10-18-24-40-32-48l-14-16-5 13c-2 6-10 12-18 12h-14v-90h-40v-60h20v-80h-24c-14 0-28-4-31-10l-6-10h61v-9c0-6-4-13-10-16-5-3-11-18-11-33l-1-27-5 18-4 17h-29v50h-24l12 12c18 18 15 28-8 28h-21l7-37c4-21 11-39 15-41 5-2 9-17 9-33v-29h-50v-40h40v31l28-3 27-3v-30l-22-3-23-3v-30l-35 7-35 6v-22h-50v-30h-50v50h-10c-5 0-10-4-10-10 0-5-7-10-16-10s-23-8-30-17l-14-18-14 18-14 18-6-16c-7-19-26-20-26 0v15h-15c-8 0-15 5-15 10v10h-50v18l-1 17-13-18-14-18-33 3-32 3-4 11c-2 7 3 19 12 27 8 9 15 18 15 22 0 8 26 35 34 35 3 0 15 9 26 20l19 19-6 86-6 85h19v71l1 70-8-13-9-13v30c0 17-5 48-12 70-6 22-11 44-10 48 1 5-4 20-12 35-20 38-66 151-66 163v9l54-6 53-6 7 11 7 11 10-5 9-6v15c0 9 9 25 20 36l20 20h47l1 37c1 21 9 59 19 85l16 47-24 46c-13 25-36 59-51 76-16 17-28 34-28 39s-17 21-37 35l-38 25h-22c-12 0-28 6-35 14-8 7-29 17-46 21l-32 7v-11c0-6 5-11 11-11h10l-3-21-3-22-17-11-17-10-19 17-18 17-15-13c-8-6-12-11-10-10s12-2 22-8c23-12 24-32 3-50l-15-13-30 18c-32 19-38 12-12-16l17-19-17-17-17-17-20 13-20 12-20-10-20-11v-31l-17 6-18 6 20-15 19-15-20-20-19-20-78 39-77 38-67 18-68 17-76-1h-76l-68-16-68-15-71-37-71-37-70-71-71-70-32-62-32-62-20-77-20-77v-61c0-34 7-92 15-131l15-70 31-63 31-63 50-61 50-60 74-48 74-48 63-21c34-11 93-25 130-31l68-11 52 7c29 3 79 13 112 21l60 15 70 36 70 37 65 65 65 65 32 65c17 36 39 88 49 115l17 50 1 105 1 105-19 55c-10 30-26 67-34 83l-16 27 22 23 23 22 15-20c8-11 26-56 41-100l25-80v-210l-26-80-25-80-38-64-38-63-70-67-70-66-62-33c-34-18-90-42-125-54l-63-21-115-1h-115l-65 17c-127 35-208 78-298 161l-42 39 15-29c31-60 207-214 245-214 6 0 20-9 31-19l21-19-11-21-12-21h16c17 0 20-16 5-25l-10-6V786l-70 69-70 69V824l12-12 12-12h-98l12 12 12 12v185l-10 6c-6 4-8 10-5 15l5 8-33-7-32-8-29 8-29 8-13-7-13-7 52-105c28-58 53-108 55-112l4-8h-92v10c0 6 4 10 10 10h9l-6 16-6 15-41-3-41-3 2-23 3-22h-80v9c0 5 7 14 15 21s15 16 15 20c0 5 16 42 35 83s35 79 35 85v10l-27 1c-64 5-194 2-203-4l-11-7 10-12 11-13-14-19-15-19-12 13-13 12h-53l-16-18-17-19v-62l22-15c27-19 59-21 76-4l11 11 16-13c21-17 19-27-10-46l-25-16h-72l-30 22c-16 12-32 20-34 17-7-7 19-47 29-47 5 0 20-9 34-20l26-20h-44l3-37 3-38 113-3 112-3v-19l-72-1c-40-1-80-2-88-3-8-2-22-3-32-4l-16-2 6-23c3-12 10-25 15-28 12-8 47 1 47 12v9l33-2c32-2 47-13 47-35v-13h-60v-20h70v30h70v9c0 5 8 11 19 14l19 5-5-39-6-39h48l-15 10-15 10 28-2c33-3 35-15 5-28l-23-9h13l12-1v-38l-12-5-13-5 14-10 13-9-18-22-18-21h-36v-20h-39l-4 18-5 17-1-17-1-18h-15c-8 0-15 5-15 10v10h-40v30h-14c-8 0-17 6-19 13l-5 12-1-12-1-13h-30v-15c0-8-5-15-11-15h-10l15-15c8-8 24-15 35-15h21v-15c0-8 5-15 10-15 17 0 11-25-10-40-11-8-20-20-20-27v-13H498l4 25 5 25h-27v28l-20-5-20-5v16c0 9-4 16-10 16-5 0-10 7-10 15 0 14-34 55-45 55-3 0-14-9-25-20l-20-20h21c11 0 27-6 35-14l14-15v-50l30-31 29-30h16c21 0 45-24 45-44v-16h-30v15c0 8-4 15-10 15h-10v-50H370v50h-40v-30h-50v28l-44-1-44-2-21 24-21 24v-22l-40 1H70v20l-15-6-15-5 1 47 2 47 4-22c5-27 9-28 29-8l15 15H59l7 71 7 71-21-6-20-7-7 11-6 10h15c9 0 16 5 16 10 0 6-5 10-11 10H28l5 20 5 20h-8c-10 0-8 20 3 38l8 12H20l-1 43c0 23-4 62-8 87l-8 45-2-377L0 0h3000v3000h-380v-11zm300-354c0-8-4-15-10-15-5 0-10 7-10 15s5 15 10 15c6 0 10-7 10-15zm49-27c1-5-3-8-9-8h-10l1 28v27l9-20c5-11 9-23 9-27zm-740-148 42-31 10-26 10-26-6-29-7-28-21-15c-12-8-49-42-83-74l-61-59-38-11-37-10-102-99c-55-54-128-123-161-153-33-29-135-127-227-216l-166-163h-37l145 143c80 78 218 212 307 296s170 165 179 180l17 26-134-125c-73-69-201-190-284-270-82-79-171-164-197-189l-48-45-7 7-7 8 95 95c51 53 187 184 302 291 114 108 219 212 234 232l27 36-25-20c-13-11-76-69-139-130-319-307-503-480-512-484l-10-3 4 14c1 8 151 158 331 333 180 174 325 320 323 323-3 3-99-85-212-194-114-109-265-254-335-322l-127-123-8 12-7 12 134 131c410 401 556 545 574 565 11 12 56 55 100 96l80 74 21 1h21l42-30zm-611-125 67-16 59-32c63-34 71-43 57-66l-9-15-59 31c-32 17-82 38-112 47l-55 16h-181l-46-14c-25-8-74-28-109-46l-63-32-53-50c-97-91-144-190-159-330l-7-67 17-78 17-78 31-65 30-65 61-60 61-60 60-32c33-17 88-38 121-47l62-16h171l76 24 75 24 50 32c27 17 74 58 104 90l54 59 32 88 32 88 1 85v85l-26 65-26 65 10 10 10 10 16-20c8-11 24-40 36-65l20-45 1-100v-100l-18-55c-10-30-32-81-48-112l-30-56-44-47c-24-25-72-64-106-85l-62-40-65-21-66-20-85-6-85-6-85 22c-106 27-168 57-244 118l-60 48-43 65-44 65-26 80-25 80-1 90v90l17 65c10 36 32 92 49 125l31 60 66 65 65 66 71 37c39 20 96 43 125 51l54 15h83l83 1 67-15zm1289-7-5-13-1 19c-1 11 2 17 5 13 3-3 4-12 1-19zm-1312-53c66-17 168-64 172-80 1-5-1-16-6-23l-8-14-52 26c-28 15-79 34-114 42l-62 16-83-5-82-5-75-35-75-36-55-52c-66-62-100-117-120-195l-15-58v-141l14-52c20-75 53-136 107-196l47-53 60-32 59-31 64-16 64-15h117l61 16c33 8 83 27 109 40l49 25 45 47 45 47 32 64 31 63 4 89 4 89-11 44c-6 24-14 51-17 61l-7 17 24-4 24-3 17-50 17-50 1-65v-65l-19-65c-10-36-27-83-39-105l-20-40-61-58-60-58-64-30-64-29-74-16-74-15-55 6c-77 9-154 32-224 67l-59 30-51 51-51 52-32 60c-17 33-38 88-47 121l-16 62v128l15 59c9 33 28 85 42 115l27 55 60 60 61 60 61 33c74 39 158 60 239 61l61 1 59-15zm685-35v-18l-17-6-17-7-15 16-16 16 18 14 19 14 14-6 14-5v-18zm-616-58c68-32 76-41 51-62l-14-12-54 26-53 26-56 10-56 9-67-10-66-9-51-26-51-26-52-49-53-50-26-58-26-59-6-58-6-59 11-60 11-60 30-62 31-62 49-44 49-44 71-27c39-14 95-29 123-32l53-6 59 12c73 15 136 46 192 94l42 37 28 57 28 57-1 100c0 55-2 109-5 120l-4 20h30l17-35 18-35v-132l-19-55c-28-82-46-111-98-164l-48-47-65-30-65-30-85-5-86-4-55 11c-30 6-83 25-117 41l-62 29-48 48-49 49-31 64-32 65-10 71-11 70 11 70 11 69 30 62 29 61 56 51 55 50 62 31 63 31 64 7 65 7 62-6 61-6 66-31zm561 13v-20h-40l-3 23-4 24 24-4 23-3v-20zm-45-30 12-15-12-15c-16-19-39-19-46 0l-6 15 12 15c16 19 24 19 40 0zm687-7-5-13-1 19c-1 11 2 17 5 13 3-3 4-12 1-19zm33 7c0-8-4-15-10-15-5 0-10 7-10 15s5 15 10 15c6 0 10-7 10-15zm-1302-62c28-13 52-28 52-31 0-4-9-18-19-32l-19-24-19 15c-28 24-76 40-124 42l-44 1-47-13-47-13-41-35-41-35-27-52-27-51 1-90v-90l21-45 20-45 42-41c22-23 57-50 77-59l36-17 59-5 58-6 47 12 48 12 21 22c12 12 25 30 28 40l7 18 9-6 10-5 6 10 6 10h-21l12 22c7 13 21 29 31 36l17 13v30c0 17 5 39 10 50l11 19h28l11-41 11-41-6-39-7-38-31-47-30-46-41-29-40-30-54-15-54-16-72 4-71 4-60 27c-93 43-156 114-190 212l-17 50 1 76v75l21 56 21 56 38 44 39 44 51 27c28 16 70 32 93 37l43 8 55-5 55-5 53-25zm1312-8v-15h-30v30h30v-15zm-53-77-5-13-1 19c-1 11 2 17 5 13 3-3 4-12 1-19zm-1353-58 6-31-30-31c-17-17-30-34-30-38s-10-10-23-14c-13-3-38-19-55-36l-32-30h-48l-5-12c-3-7-3 5-1 28 4 54 17 85 44 109 29 27 131 83 151 84l17 1 6-30zm286-83v-13l-184-182c-164-163-206-199-206-175 0 10 373 383 382 383 5 0 8-6 8-13zm1067-19-5-13-1 19c-1 11 2 17 5 13 3-3 4-12 1-19zm39-57-6-9 10-5 11-5-13 2c-6 1-14 8-16 14l-4 12h23l-5-9zm44-121v-9l-15 5c-8 4-15 8-15 10s7 4 15 4 15-4 15-10zm-110-119c0-12-29-23-41-15l-9 5 5 10c8 12 45 12 45 0zm-650-359v-15l56 7 55 6 15-14c8-8 14-19 14-25v-11h50v-16c0-9 8-23 18-30l17-14-52 6-53 7v-11c0-6 6-13 13-15l12-5-18-1-18-1-5 15-6 15h-98v-20h-24c-14 0-28-5-31-10l-6-10-11 6-10 7-7-12-7-11-35-1c-19 0-47 4-64 9l-30 9-27-8-28-7v9c0 6 8 19 18 30l19 20 14-6c18-6 31 3 48 37l14 28 18 5c10 4 30 19 45 34l26 28 39-11 39-10v-14zm260-43v-20l-10 6c-5 3-10 13-10 21s5 14 10 14h10v-21zm143-51c7-24-3-41-10-20l-5 12h-38v30h48l5-22zm-1063-93 30-15-12-20c-14-22-24-25-33-10l-6 10h-68l-15-22c-9-12-16-32-16-43s7-31 16-43l15-22h69v28l-20 5-20 5v42h102l-6-16c-3-9-6-33-6-54v-38l-32-13c-17-7-46-12-64-12l-32 1-25 17-26 17-17 43-16 43 12 36 11 36-6 10-6 10 22 8c12 5 44 10 70 11l48 2 31-16zm260-22v-37l-12 12-12 12h-76v-42l37 4 37 3v-60l-37 3-37 4v-42h79l6 10c3 6 10 10 15 10h8l-1-35-1-35h-176v9c0 6 4 12 8 15l9 5-5 83-4 83-9 10c-5 5-9 13-9 17v8h180v-37zm150 27c0-5-4-10-10-10h-10V850h69l6 10c3 6 10 10 16 10h9v-70h-170v10c0 6 5 10 10 10h10v179l-10 6c-5 3-10 10-10 16v9h90v-10zm202-2-12-12v-52c0-29 4-64 10-78l10-26h23c13 0 28 5 35 12l12 12v136h-10c-5 0-10 5-10 10v10h90v-9c0-5-6-11-12-13l-13-5-3-81-4-82-25-20-26-20h-75l-26 31-26 31v137l-10 6c-5 3-10 10-10 16v9h94l-12-12zm329 2c22-12 25-30 7-48l-12-12-12 11-13 10-26-3c-14-2-27-7-28-12l-2-9 39-14c22-7 48-21 58-30l18-16v-66l-22-15-22-16h-38c-42 0-88 18-88 34 0 6 4 17 8 24l8 12 32-16 32-15 20 6c31 10 24 24-25 46l-44 20-16 22c-21 30-19 44 10 72l24 25h36c20 0 45-5 56-10zM755 829v-24h-40l-3 19-4 19 14 8c7 5 18 7 23 6l10-4v-24zm-91-75c9-3 16-12 16-20v-14h-55l15 10 15 10-15 10-15 10h12c6 0 18-3 27-6zm83 0c-3-3-12-4-19-1l-13 5 19 1c11 1 17-2 13-5zm161-71 4-13h-53l3-17c2-9 9-18 16-21l12-4-6 16-6 16h32v-39l-17-10-17-9-18 9c-10 5-23 19-29 30l-11 21 18 19 18 20 25-3 24-3 5-12zm62-13v-30h30v60h20v-29c0-16-3-36-6-45l-6-16h-23c-28 0-33 7-39 54l-5 36h29v-30zm118-18 3-42h-31v92l13-4 12-5 3-41zm102 33v-15h-30v-60h-20v58l-16 6-15 6 6 10 6 10h69v-15zm80-25c24-47 24-50 5-50-8 0-15 5-15 10 0 6-7 10-15 10s-15-4-15-10c0-5-7-10-15-10s-15 2-15 5c0 10 40 85 45 85 3 0 14-18 25-40zm116-7 2-43h-14c-8 0-14 5-14 10 0 6-5 10-11 10h-10l6-10 6-10h-31v91l33-3 32-3 1-42zm162 30 4-13h-53l3-17 3-18 24 3 23 4-4-14-5-13-26-3-27-3-12 25-11 26 18 20 19 21 20-3c11-2 21-9 24-15zm107-3 18-19-17-26-16-25h-20c-18 0-50 24-50 38 0 4 7 18 16 30l15 22h36l18-20zm65-10v-30h30v60h21l-3-42-3-43h-60l-9 26-9 27 6 16c4 9 11 16 17 16h10v-30zm160 11 10-20-10-6-11-7 6-19 6-19h-31l-1 13-1 12-5-12c-2-7-11-13-19-13h-14v90h59l11-19zm84 13c9-3 16-11 16-16v-10l-22 5-23 6 24-18 24-18-6-17-7-17-27 3-28 3 5 10c2 6 11 9 20 7l15-3-25 20-24 19 13 16c15 18 21 19 45 10zm111-39v-45h-65v90h65v-45zm91 33 8-12-13-4-12-4 18-13 17-13-13-16c-15-18-47-21-57-5l-7 11 14 9 14 9h-25v18c0 10 3 22 7 25 11 11 41 8 49-5zm294-28v-10h-220v20h220v-10zM847 568l-5-13-1 19c-1 11 2 17 5 13 3-3 4-12 1-19zm210-4c-3-3-12-4-19-1l-13 5 19 1c11 1 17-2 13-5zm-100-30c-3-3-12-4-19-1l-13 5 19 1c11 1 17-2 13-5zm305-5 4-11h24c14 0 45 3 69 8l44 7-9-14c-5-8-9-23-9-34v-20l-45-3-45-3-6-10-6-10-34 18c-19 10-36 19-39 21s3 10 13 17l18 13-13 5-13 5 15 11c19 14 27 14 32 0zm-67-9 6-10h-32l6 10c3 6 8 10 10 10s7-4 10-10zm-115-20c0-5-7-10-15-10s-15 5-15 10c0 6 7 10 15 10s15-4 15-10zm70-20v-20h-50v14c0 14 14 24 38 25l12 1v-20zm-110-35v-25h-30v-30h-30v80h60v-25zM47 408l-5-13v50l5-12c2-7 2-19 0-25zm1090-22-6-14 15-6c9-3 29-6 45-6h29v-14c0-15-21-26-49-26h-17l-17 20c-9 11-17 29-17 40v20h22l-5-14zm80 8c-3-3-12-4-19-1l-13 5 19 1c11 1 17-2 13-5zm0-20c-3-3-12-4-19-1l-13 5 19 1c11 1 17-2 13-5zm-297-59v-15h-30v30h30v-15zm30-10v-25h-20v50h20v-25zm-102-37 3-18h-61v13c0 20 12 28 34 25l21-3 3-17zm-98-29v-30l-22 7c-30 8-36 16-20 21 6 3 12 11 12 19v14h30v-31zm490 21c0-5-4-10-10-10-5 0-10 5-10 10 0 6 5 10 10 10 6 0 10-4 10-10zm892 2153 3-18h30v30l-18 3-19 4 4-19zm-57-42c-8-15 3-31 21-31h15l-3 17c-4 20-24 28-33 14zm98-37-6-15 12-12 11-11 11 11 12 12-6 15c-4 9-11 16-17 16s-13-7-17-16zm-160-20-6-15 11-11 10-10 11 6c16 10 13 33-4 40l-16 6-6-16zm120-29c-3-9-3-18 0-21 9-9 27 6 27 22 0 19-19 18-27-1zm-57-43c-2-4-1-14 4-21l8-14 16 6 16 6v31h-19c-11 0-22-4-25-8zM1600 656v-16h42l-4 13c-3 6-12 13-21 15l-17 3v-15zm333 1759v-14l9 5c4 3 8 9 8 15 0 5-4 9-8 9-5 0-9-7-9-15zm-768-1379-40-12 5-9c3-5 28-32 57-60l52-50-1 48-1 47-14 11c-7 6-11 15-8 19 10 15-10 17-50 6zM906 915c-8-22-3-28 19-23l16 3-14 19-14 19-7-18zM781 498c0-9-4-23-7-32l-6-16h56l-16 13c-9 6-18 21-21 32l-5 20-1-17zM290 360c0-5-7-10-15-10h-15v-50h-25l14-9 13-9 29 17 29 16v55h-15c-8 0-15-4-15-10z"/></g></g></svg>
