<svg version="1.1" viewBox="0 0 1024 1024" xmlns="http://www.w3.org/2000/svg">
  <title>Angelvs Courses Logo SVG better</title>
  <path d="m0 512v-512h1024v1024h-1024zm305.088 301.72c4.10701-2.76771 6.01962-6.21364 5.67243-10.22-0.21244-2.45138-0.89782-3.20616-3.74788-4.12732-1.91835-0.62003-4.05585-0.90939-4.75-0.64301-1.76391 0.67687-1.58137 5.21058 0.2379 5.9087 2.37937 0.91305 1.7439 3.26231-1.07374 3.96949-5.57765 1.3999-11.2254-4.69289-9.9084-10.6892 0.90394-4.11561 3.64829-5.27136 10.6389-4.48046 4.90418 0.55484 5.96976 0.3956 6.49398-0.97051 1.65028-4.30056-9.31134-8.4912-15.4544-5.90824-1.6031 0.67406-4.5531 2.86392-6.55554 4.86637-3.16452 3.16451-3.64082 4.26146-3.64082 8.38498 0 6.44917 3.79677 11.792 10.5 14.7756 4.39495 1.95619 7.77397 1.70353 11.5876-0.86644zm35.502 0.85494c1.11902-0.78379 3.26187-3.19605 4.76188-5.36056 2.56485-3.70109 2.71006-4.49473 2.43792-13.3249-0.28574-9.27157-0.32075-9.38944-2.78937-9.38944-2.42195 0-2.5079 0.23414-2.75303 7.5-0.33966 10.0677-0.75428 11.4545-3.84583 12.8631-2.14825 0.97881-3.06717 0.93053-4.87851-0.2563-1.94202-1.27247-2.30215-2.59152-2.77446-10.162-0.56057-8.98528-1.42556-10.703-5.13658-10.2005-1.72779 0.23398-1.87372 1.14878-1.71577 10.7557 0.19378 11.7866 1.19796 14.2006 7.17526 17.2484 4.16165 2.12207 6.82452 2.21341 9.51849 0.32647zm29.1909-10.6797c0.32055-13.2626-0.62879-17.198-4.03209-16.7146-2.19424 0.31165-2.24839 0.62039-2.24839 12.8193 0 14.1957 0.49392 16.2819 3.74553 15.8201 2.17241-0.30849 2.26468-0.74252 2.53495-11.9249zm26.0028 0.89876 0.28327-10.6823 4.21673-0.30587c3.76938-0.27342 4.25037-0.59822 4.53371-3.06156 0.4095-3.56009-0.37774-3.81057-12.7234-4.04826-9.99217-0.19238-10.1942-0.15101-10.7855 2.20873-0.87628 3.49716 0.82939 5.47994 4.76711 5.5416l3.42484 0.05362 0.29012 9.44588c0.29489 9.60129 1.26233 12.3818 4.11792 11.8352 1.3158-0.25188 1.6411-2.15779 1.87522-10.987zm22.2167 8.74116c0-3.19314 2.93327-4.72939 8.28821-4.34081 3.4486 0.25025 4.26797 0.70018 4.52182 2.48301 0.43337 3.04351 2.22463 4.23464 5.43997 3.61738 3.16548-0.60767 3.36413-1.62302 1.13377-5.79476-0.88215-1.65-3.54331-7.5-5.9137-13s-4.96711-10.1352-5.7705-10.3003c-1.67392-0.34416-7.3943 9.4708-11.8315 20.3003-2.65545 6.48097-2.74272 7.09268-1.17697 8.25 2.85641 2.11129 5.30889 1.5501 5.30889-1.21482zm6.75-9.22451c-0.9625-0.25152-1.75-1.06252-1.75-1.80221 0-1.96209 1.09936-4.50846 1.94647-4.50846 0.78991 0 3.05353 4.48276 3.05353 6.04705 0 0.99302-0.35019 1.02142-3.25 0.26362zm216.036 9.83101c0.21544-0.64632-1.04068-2.80652-2.79137-4.80045l-3.18307-3.62532 4.09417-3.74243c2.25179-2.05834 4.09416-4.06391 4.09416-4.45683 0-2.23067-3.43488-7.34232-5.92045-8.81059-3.07187-1.8146-16.486-2.4754-17.4836-0.86127-0.28716 0.46464-0.82523 6.20848-1.19572 12.7641-0.7354 13.0125-0.0951 14.9111 4.79476 14.2179 2.05797-0.29174 2.26903-0.7823 1.96905-4.57676-0.50146-6.34316 1.18419-5.63959 9.22478 3.85033 1.70541 2.01281 5.73149 2.03884 6.39732 0.0413zm-16.4021-15.5833c-1.29665-3.37902 0.0382-5.05841 4.02067-5.05841 4.57015 0 6.79713 2.34695 4.66486 4.91618-1.66488 2.00605-7.93094 2.10867-8.68553 0.14223zm-166.548 12.2826c-0.53488-6.621 2.1898-6.04991 7.46069 1.56377 1.34708 1.94581 2.66086 2.59526 5.25 2.59526 1.89933 0 3.45332-0.29502 3.45332-0.65561 0-0.36058-1.125-2.13056-2.5-3.93328s-2.5-3.57715-2.5-3.94318 1.40739-1.98021 3.12754-3.58707c2.74036-2.55988 3.05415-3.38328 2.53473-6.65121-0.38249-2.40643-1.69075-4.71931-3.6875-6.51912-2.92837-2.63957-3.53482-2.77392-11.2847-2.5l-8.19004 0.28947-0.28234 12.4445c-0.15529 6.84449-0.0569 13.032 0.21861 13.75 0.27553 0.71801 1.90378 1.30547 3.61833 1.30547 3.044 0 3.10947-0.0979 2.78139-4.15903zm-0.41108-13.2841c-0.85733-3.41586 0.15992-4.55684 4.06268-4.55684 3.06417 0 6.51241 2.04987 6.51241 3.87143 0 1.76532-2.69331 3.12857-6.18095 3.12857-3.17556 0-3.87913-0.39118-4.39414-2.44316zm67.5722 15.6916c4.41076-2.20527 5.0696-4.89241 1.52953-6.23834-1.99899-0.76002-3.19806-0.61625-5.06547 0.60732-3.35595 2.1989-7.07458 1.0646-9.4884-2.89427-2.66765-4.37517-2.47501-7.1829 0.66214-9.65058 2.76108-2.17186 7.80834-2.78252 8.86514-1.07258 0.99598 1.61154 4.05233 1.15215 5.89718-0.88638 1.62224-1.79256 1.57787-1.98809-0.89197-3.93086-6.05976-4.76661-12.6336-3.93694-18.4035 2.32269-5.07607 5.50688-5.81297 8.34374-3.64316 14.0253 3.20848 8.40131 12.3218 11.8258 20.5385 7.71772zm33.8026 0.34686c4.87756-2.53725 7.53621-6.60028 8.00312-12.2306 0.40776-4.91713 0.22114-5.4165-3.52515-9.43273-3.56976-3.82696-4.50876-4.28659-9.62383-4.71077-5.61401-0.46556-5.711-0.42716-10.161 4.0228-4.1856 4.1856-4.49284 4.85276-4.49284 9.756 0 4.881 0.31719 5.58035 4.36842 9.63158 3.76487 3.76487 4.94611 4.36842 8.54966 4.36842 2.29968 0 5.39639-0.63211 6.88158-1.40469zm-11.6254-7.90976c-4.36199-4.64313-2.05609-10.9592 4.47816-12.266 6.88355-1.37671 11.7873 8.37674 6.40341 12.7363-3.20145 2.59238-8.2076 2.37602-10.8816-0.47028zm50.0364 8.20168c1.14358-0.61202 3.12477-2.29952 4.40266-3.75 2.10407-2.38824 2.32642-3.60794 2.35504-12.9186 0.0254-8.27533-0.26356-10.3946-1.48113-10.8619-3.29879-1.26586-4.48727 1.53253-4.48727 10.5657 0 9.69679-0.70761 11.0776-5.67695 11.0776-4.44109 0-6.12817-2.88729-6.42743-11-0.32491-8.80784-0.72952-10-3.39397-10-2.11703 0-2.31055 0.54567-2.96045 8.34765-0.53644 6.43991-0.34869 9.17733 0.82155 11.9781 2.61045 6.2477 11.1905 9.58924 16.848 6.56148zm74.3893-2.28723c2.06135-2.06135 3.4-4.38867 3.4-5.91111 0-2.90555-5.06551-7.68889-8.14247-7.68889-3.17886 0-5.85753-1.89861-5.85753-4.15176 0-1.77294 0.40754-1.97809 2.75-1.38428 6.81725 1.72814 10.25 1.78747 10.25 0.17713 0-1.93401-6.7265-6.64246-9.48213-6.63735-2.77138 5e-3 -8.0669 3.37836-10.0465 6.39956-2.5786 3.93543-1.07854 6.28106 6.35525 9.93769 8.75811 4.30806 8.81598 6.15901 0.19254 6.15901-5.07627 0-6.54715 0.33835-6.78697 1.56123-0.44938 2.29147 4.86582 4.72427 10.6178 4.85982 2.53742 0.0598 4.17471-0.74576 6.75-3.32105zm36.2104-0.35-0.31037-3.75h-6c-4.66667 0-6-0.33333-6-1.5 0-0.93865 1.49694-1.82488 4-2.36812 6.34736-1.37757 6.5-1.46212 6.5-3.6005 0-1.79561-0.63834-2.03138-5.5-2.03138-5.15387 0-5.5-0.15254-5.5-2.42376 0-2.32142 0.26-2.41643 6.1578-2.25 5.89356 0.1663 6.18951 0.0585 6.8966-2.51298 0.40634-1.4777 0.48533-2.9402 0.17553-3.25-0.30979-0.30979-5.10076-0.56337-10.6466-0.5635l-10.0833-2.4e-4 0.30345 12.7502c0.16689 7.01263 0.49027 13.3127 0.71861 14.0002 0.2937 0.88426 3.22161 1.25 10.0069 1.25h9.59175zm27.5054 2.62164c3.20035-1.65325 6.60699-6.04498 6.6483-8.57075 0.042-2.56713-4.65753-6.42339-10.214-8.3813-5.86357-2.06611-4.89548-4.07169 1.59707-3.30862 6.16752 0.72487 7.86876-0.9288 4.5834-4.45522-2.72958-2.92986-7.97949-3.69888-11.7921-1.72732-3.02516 1.56436-6.13841 6.06146-6.13841 8.86692 0 2.30577 3.70918 4.94031 8.74939 6.21446 3.49275 0.88297 4.8308 1.7351 5.05348 3.21829 0.39423 2.62585-1.63705 3.32852-6.43153 2.22483-7.66842-1.76528-10.0384 1.96066-3.3684 5.29552 4.02721 2.0135 8.17874 2.2422 11.3128 0.62319zm-475.496-14.6216 0.31955-2.25h-38.5696c-25.0464 0-38.5696 0.35062-38.5696 1 0 0.55-0.1125 1.3375-0.25 1.75-0.28307 0.84922 32.9581 1.85445 59.25 1.79174 17.3724-0.0414 17.5023-0.0581 17.8196-2.29174zm578.18-0.25c0-1.96347-0.66667-2-36.5-2-29.75 0-36.5 0.24658-36.5 1.33333 0 0.73334 0.3 1.63334 0.66667 2 0.36666 0.36667 16.7917 0.66667 36.5 0.66667 35.1667 0 35.8333-0.03721 35.8333-2zm-624.604-49.4187c6.62923-1.99511 18.604-9.29309 18.604-11.3382 0-1.71466-7.73084-10.2432-9.28513-10.2432-0.47779 0-2.15095 1.28224-3.71813 2.84941-4.12604 4.12604-10.3556 5.63308-17.3139 4.18854-9.97348-2.07049-16.8883-8.74677-18.8764-18.2252-3.23824-15.4384 7.14209-28.7842 22.4061-28.8071 4.96087-7e-3 14.5411 3.66549 15.8268 6.0678 1.38715 2.59191 2.6183 2.42711 3.33966-0.44704 0.32767-1.30551 2.2216-3.95283 4.20873-5.88294l3.61298-3.50927-4.68246-3.22163c-10.524-7.24067-24.8876-9.12054-37.4005-4.89486-16.1285 5.44669-24.673 18.2724-24.5711 36.8824 0.0531 9.69995 2.70606 16.9412 9.0375 24.6679 8.69663 10.6131 25.7448 15.8461 38.812 11.9135zm85.104-0.70647c0.66656-0.66618 0.41648-1.32867-0.75-1.98684-1.03064-0.58152-1.75-2.16687-1.75-3.85668 0-1.5781 0.7875-4.26202 1.75-5.96426l1.75-3.095 14.4879 0.26396c14.3609 0.26164 14.4982 0.28587 15.663 2.76395 2.1761 4.62957 2.04457 7.41426-0.40087 8.48713-1.2375 0.54292-2.25 1.70693-2.25 2.5867 0 1.4087 1.58104 1.5448 13.25 1.1406 7.2875-0.25243 13.4126-0.60402 13.6113-0.78131 0.19871-0.17729-0.80861-1.40657-2.23848-2.73173s-3.78738-5.06258-5.23891-8.30538c-11.5972-25.9087-31.6352-66.2022-32.9756-66.309-0.60044-0.0479-1.6142 1.65689-2.25279 3.78832s-5.80786 13.9439-11.4872 26.25c-5.6794 12.3061-11.6206 25.5247-13.2027 29.3747-3.54111 8.61733-6.38655 13.2826-9.97763 16.3589-1.6042 1.37424-2.32374 2.6265-1.72377 3 1.61284 1.00403 22.6179 0.13323 23.7358-0.98402zm14.1526-27.6687-7.84741-0.29382 0.67887-2.70618c1.33734-5.33106 7.32559-16.3222 8.16544-14.9873 2.88106 4.57942 8.33904 17.1579 7.66558 17.6661-0.44829 0.33829-4.3464 0.48285-8.66248 0.32125zm123.559-5.77961 0.28867-34.0508 3.80134-3.33657c2.09073-1.83511 3.44073-3.63219 3-3.9935-1.16375-0.95402-28.3013-0.00628-28.3013 0.98839 0 0.46085 1.8 1.84956 4 3.08603l4 2.24812 7e-3 12.0659c4e-3 6.63622 0.29398 15.1034 0.6446 18.8159 0.55302 5.85553 0.41957 6.75-1.00711 6.75-0.90453 0-1.6446-0.403-1.6446-0.89555 0-1.59882-27.2206-27.7572-37.5-36.0365-9.37532-7.55122-13.4979-9.49837-14.992-7.0809-0.33552 0.54288 0.36583 2.00538 1.55854 3.25 4.89753 5.11067 5.11142 6.92063 4.44799 37.6396l-0.61806 28.6233-2.95719 2.5c-1.62646 1.375-2.95314 2.8375-2.94818 3.25 0.0132 1.09603 24.7863 0.9194 25.4667-0.18158 0.31666-0.51237-0.34592-1.57714-1.4724-2.36616-3.23505-2.26592-3.98531-6.99685-3.98531-25.1304v-16.9413l19.75 19.7537c10.8625 10.8646 21.2947 21.3055 23.1827 23.202s3.78307 3.09793 4.21133 2.66967c0.42827-0.42827 0.90857-16.1015 1.06733-34.8294zm74.8821 33.6717c2.9736-1.04598 7.88155-3.0141 10.9066-4.3736l5.5-2.47182-0.29659-13.3764c-0.23446-10.5746 0.0263-13.9742 1.24469-16.2305 0.84771-1.56974 1.29212-3.25724 0.98758-3.75-0.9076-1.46851-28.1346-1.1324-28.682 0.35408-0.25315 0.6875-0.4138 3.5-0.35699 6.25l0.1033 5h11v15l-8.54196 0.2859c-9.80895 0.3283-13.8565-0.93818-19.2475-6.02258-8.49596-8.01272-8.93494-28.1536-0.77607-35.6071 8.36944-7.6459 24.8545-8.41191 33.0276-1.53468l3.0242 2.54469 1.07047-2.83312c0.58876-1.55822 2.23545-4.05436 3.65931-5.54697 3.34942-3.51116 2.62907-4.36011-7.95226-9.37199-7.83886-3.71289-8.72662-3.90662-17.2638-3.76737-12.615 0.20577-19.108 2.78632-27.0879 10.7657-5.02476 5.02445-6.48843 7.29253-8.38158 12.9879-5.73647 17.2578-0.37355 35.7816 13.4105 46.3209 8.97923 6.86549 23.8574 9.1741 34.6524 5.37693zm239.957-0.7917c5.94539-2.63621 11.2097-7.3338 14.1023-12.5841 2.20795-4.00767 2.35224-5.46201 2.83661-28.5909l0.51032-24.3685 4.37835-3.76933c2.4081-2.07313 4.11715-4.19196 3.7979-4.70852-0.35561-0.57539-3.21362-0.60225-7.37835-0.0693-3.73885 0.47843-10.0604 0.58719-14.0479 0.24169-8.18523-0.70922-9.15187 0.20391-3.75 3.54245l3.5 2.16312v21.8533c0 12.0193-0.40243 22.8951-0.8943 24.1684-2.31097 5.98249-8.56696 9.8151-16.0212 9.8151-4.16438 0-5.60399-0.51726-8.48861-3.04998-1.91056-1.6775-3.91128-4.49-4.44606-6.25-0.53478-1.76001-1.24952-12.9452-1.5883-24.856l-0.61598-21.656 2.52725-1.98793c4.25667-3.3483 3.1888-4.16357-4.72276-3.60564-3.9875 0.2812-10.0805 0.10951-13.5399-0.38153-7.49189-1.06343-8.7518-0.0385-4.51626 3.67404 5.20863 4.56543 5.493 5.90517 6.05068 28.5063 0.4329 17.5441 0.84885 21.9948 2.46431 26.3683 2.641 7.14984 9.98861 14.6097 16.4093 16.6599 6.46572 2.06464 17.4394 1.54251 23.4326-1.11493zm80.7236 1.16783c14.8196-4.40093 22.0579-18.3433 16.1017-31.0146-3.33285-7.09033-7.75234-10.006-21.936-14.4718-16.7982-5.28895-20.5332-9.2229-13.639-14.3654 5.25972-3.92331 18.3522-2.30967 24.7175 3.04641l2.96774 2.49719 1.07547-2.82869c0.59151-1.55578 2.16959-4.26316 3.50685-6.0164 1.33727-1.75325 2.43139-3.46492 2.43139-3.80373s-3.47181-2.26477-7.71513-4.27991c-6.75288-3.20693-8.84199-3.71003-16.75-4.03378-10.4194-0.42655-14.2989 0.78137-20.4987 6.38256-5.04171 4.55489-7.45132 10.7412-6.80475 17.4701 0.87911 9.14905 7.15121 14.6778 23.0956 20.3585 5.87707 2.0939 11.8078 4.68978 13.1793 5.76864 3.30834 2.60234 3.27927 6.72977-0.0696 9.87584-2.12956 2.00062-3.82412 2.47174-10.0149 2.78437-6.50449 0.32846-8.14953 0.0348-12.9424-2.31009-3.01991-1.4775-5.95403-3.55202-6.52026-4.61005-0.56621-1.05802-1.57688-1.92368-2.24591-1.92368-0.9591 0-4.1907 5.64671-7.51501 13.1312-0.16598 0.37371 1.37238 1.23199 3.41858 1.90729 2.0462 0.67531 5.11406 2.05014 6.81748 3.05518 7.71341 4.55102 20.4552 6.01917 29.3401 3.38064zm-577.719-0.504c2.86994-1.53595 5.22124-6.72675 4.45186-9.82806-0.85837-3.46003-4.35466-7.1423-6.78156-7.1423-3.18557 0-8.72569 6.31458-8.72569 9.94545 0 5.80998 6.09219 9.68113 11.0554 7.02491zm353.491 0.25513c0.98218-0.21169 0.81443-19.0901-0.17914-20.1605-0.22209-0.23927-2.20612 1.3249-4.40896 3.47592-4.41768 4.31375-3.80415 4.21608-23.2081 3.69436l-8.75-0.23526v-16.7948l8.75-0.41697c9.07764-0.43258 12.346 0.16488 14.9059 2.72481 2.63765 2.63765 3.34407 0.61558 3.34407-9.57209 0-10.4892-0.55784-11.5583-4.27356-8.19098-1.51729 1.37504-4.16751 1.82332-12.369 2.09218l-10.438 0.34219 0.29027-8.84219 0.29028-8.84218h13.6869c13.5692 0 13.7115 0.0236 16.5547 2.75 4.81825 4.62025 5.36352 3.86362 5.04462-7l-0.28621-9.75h-29.7493c-16.3621 0-29.7496 0.21273-29.75 0.47273-3.8e-4 0.26 1.91181 2.11883 4.24931 4.13072l4.25 3.65798 0.50244 27.8693c0.27634 15.3281 0.32971 29.1616 0.11861 30.7412-0.25081 1.87661-1.37581 3.43616-3.24612 4.5-1.57426 0.89544-2.86353 2.07808-2.86506 2.62808-2e-3 0.84723 53.8226 1.52592 57.5364 0.72549zm76.518-0.72549c0.23724-3.72076-0.27555-20.0447-0.64117-20.4103-0.24777-0.24778-1.92417 1.15837-3.72533 3.12478-3.02709 3.30481-3.83926 3.62691-10.7362 4.25784-4.10379 0.37541-9.88774 0.53522-12.8532 0.35513l-5.39179-0.32743 0.31712-54 3.48323-3.10598c1.91578-1.70828 3.48323-3.29167 3.48323-3.51863s-6.75-0.43001-15-0.45123c-8.25-0.0212-15 0.27126-15 0.64995 0 0.37868 1.53846 1.86195 3.4188 3.29616 5.6135 4.28163 5.96488 6.7662 5.17528 36.594-0.73962 27.9397-1.12411 30.117-5.56744 31.5273-1.11465 0.35378-2.02621 1.17541-2.02568 1.82585 1e-3 1.53717 54.9652 1.71945 55.0632 0.18261zm-157.064-113.958c18.4963-2.0003 45.678-7.31887 48.5-9.48987 0.55-0.42313 4.825-1.77439 9.5-3.00282 4.88847-1.28451 12.5364-4.40837 18-7.35222 5.225-2.8153 11.525-6.1797 14-7.47644 8.31732-4.35775 9.49223-5.13019 11.5-7.56063 1.1-1.33157 3.575-3.1998 5.5-4.15162 1.925-0.95181 4.4-2.56005 5.5-3.57386s5.6-4.86795 10-8.56476 8.72036-7.42979 9.6008-8.2955c0.88044-0.86572 3.01794-2.815 4.75-4.33174 1.73206-1.51675 3.1492-3.42925 3.1492-4.25 0-0.82076 0.6138-1.49229 1.364-1.49229s2.62486-1.81942 4.16591-4.04316c1.54105-2.22373 3.31957-4.36123 3.95228-4.75 1.00404-0.61693 11.7193-14.4834 15.3014-19.8013 4.66515-6.92583 15.7006-28.424 19.4576-37.9055 2.80559-7.08033 8.46329-25.7336 10.6919-35.2509 3.35699-14.3359 5.02842-29.3971 5.02156-45.2491-0.0115-26.5709-2.81998-43.2951-11.4448-68.1532-4.36901-12.5921-11.3329-27.764-14.2718-31.0932-1.8962-2.14807-3.53513-1.04522-6.21119 4.17957-1.00481 1.9618-3.22192 4.59287-4.92692 5.84684-1.70499 1.25396-3.09999 2.89624-3.09999 3.64951 0 0.75326 1.506 3.60748 3.34667 6.34271 7.7583 11.5288 15.5314 34.9152 18.6379 56.0743 5.68403 38.7154-0.89056 76.7534-19.9899 115.654-10.5903 21.5696-19.4662 34.1127-35.4262 50.0631-12.021 12.0138-16.964 16.1106-30.0686 24.9212-20.3526 13.6836-35.0646 20.4446-59.5 27.3435-18.771 5.29967-30.0344 7.12131-48.6065 7.86121-22.6246 0.90135-38.9567-1.16006-65.8349-8.30957-32.3296-8.59958-66.8349-28.3701-89.5586-51.3143-18.2413-18.4184-31.7421-37.6241-42.5395-60.515-6.85165-14.5258-8.84877-20.4981-13.0038-38.8869-10.857-48.0491-5.11343-93.4825 17.5294-138.663 16.4115-32.7467 39.7643-58.4563 70.6512-77.7812 9.75992-6.10646 34.5-18.2822 42.8626-21.0948 23.875-8.02966 57.9522-13.1623 78-11.7481 16.0606 1.1329 43.6426 6.34307 55.543 10.4919 17.8528 6.22407 38.7277 15.9959 51.4161 24.0685 7.89692 5.02418 10.5409 6.0315 10.5409 4.01591 0-0.5763 2.025-2.9607 4.5-5.29866s4.5-4.75885 4.5-5.37977-2.8125-2.82154-6.25-4.89027c-3.4375-2.06872-6.475-4.0138-6.75-4.3224-2.01126-2.25696-17.864-10.6862-29.5267-15.7001-23.0222-9.89733-43.907-15.5496-69.9733-18.9376-15.3551-1.99581-42.5612-1.44703-57.7068 1.16402-11.7155 2.01972-33.9495 7.69235-43.6549 11.1378-17.6576 6.26856-51.88 25.6936-65.2476 37.0352-19.0442 16.158-40.8773 41.7286-50.13 58.7116-15.2994 28.0816-21.5824 45.4732-26.9752 74.669-1.99622 10.8072-2.27437 15.4352-2.21524 36.859 0.0733 26.5658 0.85106 33.1146 6.5319 55 6.07618 23.4085 14.8449 42.6738 29.1299 64 10.7785 16.0914 17.1592 24.119 27.768 34.9354 5.91777 6.03359 15.3658 14.2012 20.973 18.1307 1.91016 1.33863 4.04746 2.96403 4.74956 3.612 2.54269 2.34665 25.1311 16.2689 30.3884 18.7297 25.9412 12.1425 47.2494 18.51 77.389 23.1261 17.2601 2.64352 30.7774 2.92439 48.5 1.00777zm4.49878-26.6835c6.59933-0.61859 16.9493-2.43054 23-4.02657 6.05067-1.59602 12.597-3.31774 14.5475-3.82603 1.95046-0.5083 6.90046-2.32824 11-4.04432 4.09953-1.71607 8.3537-3.38243 9.4537-3.70301s2.225-0.84735 2.5-1.17059c0.275-0.32325 4.09729-2.38772 8.49399-4.58772 8.11791-4.06201 17.7414-10.1697 18.3288-11.6326 0.17751-0.44214 2.65251-2.15232 5.5-3.80041 6.13731-3.55219 11.9437-8.82693 11.1429-10.1227-0.31569-0.51078 0.19528-0.62798 1.14649-0.26297 1.24308 0.47702 1.49462 0.30031 0.91274-0.64118-0.51529-0.83376-0.36294-1.15291 0.42498-0.89027 1.61313 0.53771 14.7493-12.6574 17.0733-17.1499 0.99581-1.925 2.74799-4.06631 3.89373-4.75847s2.08316-1.73372 2.08316-2.31456c0-0.58085 1.2375-2.0997 2.75-3.37523s5.16017-7.20897 8.10593-13.1854c2.94577-5.97646 5.75827-11.6477 6.25-12.6027 0.49174-0.95504 0.89407-2.2696 0.89407-2.92126s0.60089-1.89526 1.33531-2.76357c0.73441-0.86831 1.90483-3.15374 2.60092-5.07874 0.69608-1.925 1.63494-4.4 2.08634-5.5 2.45623-5.98544 7.98722-23.5514 8.50148-27 0.32807-2.2 1.01083-6.025 1.51725-8.5 4.62806-22.6187 2.39373-58.6069-4.63719-74.6908-7.95634-18.2009-14.3294-28.3092-17.8485-28.3092-1.07483 0-1.13518 0.81867-0.30226 4.1001 0.82872 3.26492 0.75614 4.29892-0.35633 5.07613-1.08109 0.75529-1.11294 1.09121-0.14082 1.48531 0.69093 0.2801 1.04678 0.84818 0.79078 1.26239-0.42272 0.68399 1.56027 6.30273 7.32326 20.7502 2.75405 6.90423 5.1544 22.8956 5.82787 38.8259 0.76505 18.0963-1.29062 31.0785-8.37023 52.8608-11.3152 34.8143-19.1564 48.575-38.9497 68.3534-13.9925 13.982-29.5995 25.006-47.978 33.889-13.0077 6.28712-35.9272 13.6664-49.4002 15.9052-13.2876 2.20796-41.0438 3.01182-54.5 1.57839-11.2648-1.19998-36.8509-7.34924-47.8482-11.4996-14.4079-5.43756-33.9385-16.2244-46.1518-25.4899-11.2548-8.53833-27.5301-25.9412-36.1141-38.6162-8.89919-13.1403-11.4205-17.7617-16.6296-30.4811-16.5095-40.3126-19.8966-78.7818-10.3456-117.5 6.25889-25.3724 14.1151-42.336 30.1763-65.1587 3.90776-5.55285 21.7529-23.4052 29.913-29.9251 9.51411-7.60172 30.1622-19.4911 46.5-26.7752 7.76501-3.46198 28.0628-9.46108 37-10.9355 29.7396-4.90639 60.0055-2.46976 89.6677 7.21894 11.4666 3.74538 29.4268 11.8929 35.2195 15.977 3.08319 2.1738 13.2302 7.37374 13.4953 6.91583 0.10102-0.17448 0.80325-1.54713 1.56051-3.05035 0.75725-1.50322 2.23708-3.6565 3.28852-4.78508 1.05143-1.12858 1.76695-2.46972 1.59005-2.98032-0.82368-2.37741-29.7076-18.1125-41.8216-22.7833-30.2395-11.6592-67.47-15.9052-98.3168-11.2128-27.0505 4.11496-37.8406 7.54746-62.7043 19.9473-27.0552 13.4927-53.7877 36.5388-71.022 61.2281-26.7691 38.3485-39.2498 92.8611-31.8833 139.259 2.60438 16.4034 8.56572 37.0691 14.4408 50.0606 0.74616 1.65 2.66395 5.925 4.26175 9.5 3.39313 7.59197 14.9746 26.0142 19.7239 31.3741 0.55 0.62071 2.8 3.3672 5 6.10331 7.70631 9.58424 17.1443 18.2893 30.6181 28.2405 17.6785 13.0566 29.5075 19.4544 48.8819 26.4382 11.8497 4.27144 40.2854 10.832 51.3036 11.8366 20.0483 1.82795 24.3963 1.815 45.1952-0.1346zm113.501-62.7512c0-0.49116 0.65208-1.14324 1.44907-1.44907 0.96852-0.37166 1.26467-0.0755 0.89301 0.89301-0.60696 1.58173-2.34208 1.99368-2.34208 0.55606zm-104.384 39.5194c13.8824-3.05056 30.5233-8.08071 36.2123-10.9461 8.15589-4.10789 9.6717-4.99205 10.0046-5.83557 0.18334-0.46459 1.20076-0.84471 2.26094-0.84471 1.73539 0 11.7837-5.77476 22.3636-12.8523 8.20522-5.48899 23.1228-20.2189 33.6576-33.2341 6.53434-8.07288 14.9913-23.3286 17.6911-31.9136 10.8697-34.5638 11.7116-39.0292 11.5942-61.5-0.0829-15.8709-0.4583-20.4822-2.27954-28-3.24164-13.3809-6.81413-22.0638-10.2768-24.9774-3.22676-2.71515-4.84448-3.18518-4.84448-1.40759 0 0.68478-0.95106 0.49185-2.46482-0.5-1.35565-0.88826-2.93065-1.61501-3.5-1.61501-1.65905 0-1.19284 2.81239 0.63585 3.83578 1.64671 0.92154 2.28662 3.38866 7.43482 28.6642 1.76286 8.65489 1.97536 12.623 1.57985 29.5-0.49851 21.2718-1.56842 27.8479-7.15865 44-7.37896 21.3204-14.6206 33.6497-30.3784 51.7209-12.8173 14.699-33.1805 27.7979-56.1487 36.1183-7.68543 2.7841-14.4907 4.56636-29.3841 7.69554-11.9854 2.51817-14.113 2.67229-30.5 2.20939-36.688-1.03635-68.31-10.66-95.6159-29.0991-13.3686-9.02759-35.3606-33.3652-43.5049-48.145-1.81844-3.3-3.86403-6.9-4.54576-8-2.58495-4.17092-8.57756-20.7177-11.4587-31.6399-7.83443-29.6993-7.85386-58.2229-0.0596-87.5691 4.86731-18.3261 13.4372-36.2091 23.6213-49.291 6.16419-7.91816 22.6384-23.7685 31.9477-30.7379 14.8928-11.1495 35.7689-21.5741 52.5081-26.2203 43.0075-11.9372 87.1888-6.2271 126.492 16.3482 4.4 2.52731 8.73524 4.59846 9.63386 4.60255 1.05148 5e-3 2.45156-2.00727 3.92793-5.64481l2.29409-5.65225-2.92794-2.41343c-4.30413-3.54774-27.6856-14.7526-36.928-17.6966-12.2246-3.89391-22.9025-6.3934-35-8.19287-15.1781-2.25768-41.7994-1.51183-56.5 1.58296-51.5183 10.8457-97.393 44.5744-120.02 88.2424-17.0021 32.8131-23.0453 77.5303-15.4112 114.036 9.34018 44.6633 30.1804 78.4231 64.0777 103.802 22.2732 16.6758 60.4907 30.7986 92.8531 34.3128 2.2 0.2389 11.425 0.26937 20.5 0.0677 12.7622-0.28359 19.0183-0.92002 27.6164-2.8094zm-0.038-21.1228c10.818-2.1904 17.8734-4.30046 24.9216-7.45334 1.1-0.49206 3.9125-1.69125 6.25-2.66487 2.3375-0.97361 4.25-2.1336 4.25-2.57776 0-0.44415 0.65025-0.80755 1.44499-0.80755 2.75031 0 15.1703-6.89605 21.5992-11.9927 21.1775-16.7889 36.561-39.3347 44.9407-65.8643 5.46906-17.3147 6.94532-25.9536 6.94532-40.643 0-16.2073-1.88356-26.0476-6.93853-36.2489-3.97984-8.03165-5.186-9.36372-6.5217-7.20251-0.44171 0.7147-1.10499 0.66932-2.08318-0.1425-0.78933-0.65508-1.64316-0.98304-1.8974-0.7288-1.22712 1.22712-0.6744 8.39077 1.45119 18.8083 2.06989 10.1446 2.27564 13.2385 1.76228 26.5-1.37604 35.5471-9.97517 58.281-29.9606 79.2082-14.1008 14.7653-34.6379 28.656-49.7517 33.6507-21.1311 6.98328-45.3352 9.96517-62.6742 7.72133-22.7978-2.95026-54.3238-14.1982-70.3164-25.0876-23.8314-16.2269-44.4858-48.3171-52.1205-80.9782-5.82622-24.9246-4.99261-54.1886 2.14379-75.2579 3.68384-10.8761 11.8273-27.3027 17.4712-35.2421 4.62387-6.50445 18.6949-20.7117 27.5054-27.7718 34.5752-27.7058 85.2215-36.1994 128.5-21.55 13.3685 4.52511 14.9279 5.23305 25.233 11.4548 3.97814 2.40185 7.6748 4.367 8.21482 4.367 0.54001 0 1.51503-1.0125 2.16672-2.25s1.46542-2.475 1.80828-2.75c0.34287-0.275 1.37299-1.67967 2.28915-3.12149 1.61226-2.53731 1.5794-2.70259-1.0231-5.14651-6.22281-5.84363-35.4799-18.0344-51.3958-21.4154-6.45384-1.37099-13.1721-1.76779-30.293-1.78916-19.1303-0.0239-23.2392 0.25788-31.5 2.16004-31.6083 7.27822-54.5185 19.9841-78.5 43.5357-12.7994 12.57-18.243 19.8826-25.0551 33.6577-15.6142 31.5745-19.4915 69.9457-10.7736 106.619 3.35908 14.1305 6.11517 21.4232 13.2425 35.04 21.4048 40.8937 58.7238 67.3432 107.095 75.9026 19.7994 3.50355 44.4465 3.52791 61.5697 0.0609zm-2.24385-28.9363c5.40901-1.46074 10.584-3.04841 11.5-3.52817s6.39044-3.1343 12.1654-5.89898c10.5436-5.04759 15.1354-8.3615 24.465-17.6564 14.8672-14.8121 22.3422-28.4933 24.6736-45.1596 1.76217-12.5966-1.33062-31.6674-6.07743-37.4746l-1.9204-2.34939-4.06248 3.94522c-6.75569 6.56068-7.9672 10.07-7.37445 21.3613 1.13543 21.6289-7.92477 40.2491-26.556 54.5772-11.7769 9.05681-27.7651 15.0478-47.1479 17.6671-20.1481 2.72265-46.6991-2.76275-64.5-13.3256-8.16181-4.84313-26.2091-22.37-31.7471-30.8316-8.27118-12.6378-14.8579-31.8902-16.8893-49.3663-2.75853-23.731 3.49458-50.5507 16.5413-70.9461 4.78684-7.48304 18.4792-21.646 25.3104-26.1803 18.1992-12.08 44.8912-17.8906 64.2055-13.977 15.3555 3.11143 29.4938 8.84205 35.2695 14.2957 1.47967 1.39716 3.33113 2.29439 4.11436 1.99383 1.55905-0.59826 10.6953-13.2184 10.6953-14.7737 0-1.35538-9.85028-7.50122-17.8081-11.1109-13.984-6.3432-27.4271-8.92263-46.7069-8.96197-14.8387-0.0303-22.6969 1.093-33.485 4.78646-15.5786 5.33354-26.6951 11.903-40.7053 24.055-17.9928 15.6066-30.9036 40.2618-35.2374 67.2917-1.58921 9.91175-1.30449 33.476 0.52075 43.0978 4.55445 24.0092 15.6718 47.1537 30.5721 63.6467 5.52053 6.11056 18.7247 17.0758 24.8498 20.6363 11.5729 6.72719 33.3397 14.822 44.5505 16.5678 3.27223 0.50957 13.8245 0.7798 23.4495 0.60051 15.1597-0.28239 18.8152-0.68117 27.3346-2.98188zm-49.5704-29.2252c12.3664-10.0426 116.255-112.463 118.228-116.558 1.0704-2.22083 1.07353-2.99967 0.0171-4.27253-1.1661-1.40506-1.54588-1.39211-3.90073 0.13308-2.35161 1.52309-22.9872 21.8172-100.282 98.622-13.7085 13.6217-24.6511 25.2092-24.3168 25.75 1.27101 2.05654 4.71726 0.82151 10.2538-3.67466zm-18.0016-2.66681c1.73311-1.27865 8.45804-7.23824 14.9443-13.2435 11.1815-10.3524 21.7168-20.575 75.7506-73.5022 22.5961-22.1333 31.0628-30.1639 39.0186-37.0086 2.18685-1.88144 6.68685-5.90551 10-8.94238 3.31314-3.03686 10.2989-9.31383 15.5239-13.9488 9.9448-8.82183 21.9552-20.3032 50.7688-48.5323 9.49783-9.3052 18.4978-17.6883 20-18.6292 1.50217-0.94083 7.22734-2.90049 12.7226-4.35479 11.1188-2.94254 13.4722-4.42009 22.6902-14.2456 13.1638-14.0314 21.6733-21.8685 32.5614-29.9884 6.18364-4.61153 11.7348-9.30346 12.3358-10.4265 1.71831-3.2107 2.39115-19.8989 0.97526-24.1891-3.03578-9.19851-16.2211-20.6325-30.7836-26.6949-9.32361-3.88143-13.2468-4.01864-17.545-0.61362-1.77403 1.40537-11.7755 10.9537-22.2255 21.2185-13.901 13.6546-21.6231 20.3965-28.7744 25.1215-8.73195 5.76949-10.0871 7.07775-12.7067 12.2672-7.0572 13.9802-14.6988 22.1145-63.9181 68.0393-15.6195 14.574-31.862 29.8732-36.0943 33.9982s-17.096 16.5-28.5859 27.5-28.1946 27.1639-37.1215 35.9198c-8.9269 8.75592-16.6417 16.1809-17.144 16.5-3.02127 1.91923-51.2148 49.6929-51.713 51.2624-0.64778 2.04098 1.06193 4.83584 2.93029 4.79014 1.22099-0.0299 7.11024-5.3691 25.4566-23.0791 6.49147-6.26633 23.023-22.1738 36.7368-35.3499 13.7138-13.1761 39.5592-38.1786 57.4342-55.561 17.875-17.3824 34.9576-33.827 37.9612-36.5434 9.58838-8.67146 22.08-20.4681 38.5388-36.3947 23.4813-22.722 33.6881-32.0443 35.0844-32.0443 1.92247 0 1.78059 2.86115-0.33443 6.74365-2.38311 4.37465-29.3985 31.5971-55.2854 55.7091-4.10552 3.82403-13.7779 13.049-21.4942 20.5-7.71631 7.45098-21.8913 20.9713-31.5 30.0452-9.60868 9.07387-22.4041 21.2239-28.4342 27s-12.1382 11.627-13.5735 13.002c-1.4353 1.375-15.6405 15.325-31.567 31s-32.258 31.6299-36.2919 35.4553c-5.76317 5.46519-7.12614 7.28621-6.36192 8.5 2.9497 4.68491 5.94834 2.15687 57.3074-48.3135 25.8021-25.3556 41.5257-40.4813 49.9685-48.0682 3.01524-2.70959 16.9573-16.0024 30.9823-29.5396 14.025-13.5372 29.1-27.9474 33.5-32.0227s17.225-16.2936 28.5-27.1518c11.275-10.8582 22.75-21.4988 25.5-23.6458 5.5652-4.34496 14.375-9.672 14.9856-9.0614 0.21736 0.21737-2.16546 3.08454-5.29517 6.3715-3.12972 3.28695-8.59463 9.35128-12.1442 13.4763-8.05031 9.35523-33.5223 34.8403-49.9986 50.0242-30.6525 28.2482-60.0392 56.4236-114.121 109.417-14.0654 13.7823-30.6029 29.9708-36.75 35.9744-6.14708 6.0036-11.1696 11.4036-11.1612 12 0.0286 2.02473 1.71821 3.78252 3.29962 3.43277 0.8664-0.19161 7.56248-6.16013 14.8802-13.2634 23.1886-22.509 36.6393-35.4776 61.8049-59.5894 13.475-12.9108 29.9-28.6896 36.5-35.0641s14.9246-14.2543 18.499-17.5107 6.72447-6.14578 7-6.42078 2.97597-2.71553 6.00097-5.4234c3.025-2.70786 11.8176-11.0329 19.5391-18.5 7.72149-7.46713 24.1005-23.2516 36.3978-35.0766 12.2973-11.825 23.3968-22.5125 24.6655-23.75 7.43285-7.25012 1.06501 6.23352-7.79673 16.5093-6.233 7.22756-36.5185 36.9325-56.3084 55.2289-21.3914 19.7771-30.0114 27.9801-59.91 57.0118-29.8796 29.0134-69.9605 67.7019-83.4413 80.5426-7.89251 7.51778-10.4804 10.9906-9.46957 12.7074 0.84177 1.42962 3.95018 0.73881 7.08613-1.57482zm238.692-235.13c-4.34653-4.34652-2.45552-10.3999 3.90451-12.4989 3.56772-1.17745 8.36744-0.0738 9.85528 2.26605 1.43801 2.26155 0.77642 7.42947-1.28692 10.0526-2.84028 3.61083-8.95398 3.69921-12.4729 0.18031zm17.734-16.5844c-3.18485-2.96714-2.77053-6.57907 1.21144-10.561 1.87-1.87 4.05026-3.4 4.84501-3.4 2.25805 0 4.7843 3.40578 5.41665 7.30251 0.4745 2.92396 0.12202 4.00472-1.99728 6.12402-3.09937 3.09937-6.51591 3.29209-9.47582 0.53451zm-37.1886-5.67048c-3.4993-1.28666-5-3.64966-5-7.87297 0-3.46379 0.5175-4.6795 2.73422-6.42317 4.81821-3.79001 11.5411-0.86766 12.8301 5.57704 0.48281 2.41404 0.0446 3.73992-2.06459 6.24652-2.56216 3.04497-5.00799 3.75646-8.4997 2.47258zm53.7751-7.84936c-5.13928-2.78899-6.18775-7.72443-2.52514-11.8865 5.4681-6.21378 13.75-3.00506 13.75 5.32728 0 3.10089-0.57831 4.42777-2.63486 6.04545-3.08619 2.42759-4.86711 2.53411-8.59 0.51378zm-33.2751-11.5959c-3.16347-1.73029-4.5-3.96864-4.5-7.5364 0-4.20033 3.00514-7.30887 7.06574-7.30887 4.39322 0 6.61614 1.50605 7.88136 5.3397 2.46721 7.47572-3.7747 13.1551-10.4471 9.50557zm20.5958-16.9335c-5.70876-2.28291-8.11894-9.77086-4.26702-13.2568 4.82429-4.36592 14.1713-0.18092 14.1713 6.34501 0 1.94837-0.90731 3.99822-2.45455 5.54545-2.64862 2.64863-3.74176 2.84912-7.44969 1.36633zm11.7157 87.0493c2.69633-2.51201 2.90743-7.8517 0.43131-10.9096-2.53253-3.12753-9.92351-3.16392-12.4359-0.0612-2.42676 2.99693-2.33045 8.48614 0.19318 11.0098 2.70344 2.70344 8.88973 2.68304 11.8114-0.039zm14.8925-14.711c4.45513-3.87891 4.09591-11.2618-0.64345-13.225-4.3745-1.81197-9.06313-0.92819-11.3419 2.1379-5.11367 6.88053 5.51942 16.7167 11.9853 11.087zm13.7477-14.6653c8.77739-3.66743 6.90822-14.5847-2.49708-14.5847-4.53624 0-8.95455 3.40826-8.95455 6.90749 0 3.12109 2.01965 6.78773 4.36408 7.92292 2.87811 1.3936 3.18989 1.38279 7.08755-0.24575zm-98.7285-47.5574c5.59143-3.40923 5.5616-9.66324-0.0625-13.0925-4.08999-2.4939-7.73811-2.44829-11.0258 0.13784-5.54534 4.36197-1.95426 14.9331 5.06969 14.9237 1.5375-2e-3 4.24587-0.8881 6.01861-1.96898zm17.6718-16.9874c4.40424-1.67449 6.60503-4.68658 6.60503-9.03993 0-5.31112-2.67014-8-7.94424-8-9.60935 0-13.3743 12.4966-5.03605 16.7156 3.00728 1.52161 3.20045 1.53144 6.37526 0.32438zm25.5014-23.5747c3.66354-4.17254 4.00178-8.05362 1.03101-11.8303-4.53503-5.76536-13.9056-1.59836-15.4984 6.89196-0.63312 3.37482-0.39856 4.1026 1.98222 6.15047 4.14472 3.56513 8.67708 3.12512 12.4852-1.21209z"/>
</svg>
